<svg version="1.1" id="Layer_1" xmlns="http://www.w3.org/2000/svg" xmlns:xlink="http://www.w3.org/1999/xlink" x="0px" y="0px"
	 width="100%" viewBox="0 0 1035 302" enable-background="new 0 0 1035 302" xml:space="preserve">
<path fill="#FEFEFE" opacity="1.000000" stroke="none" 
	d="
M155.000000,1.000000 
	C448.614136,1.000000 742.228271,1.000000 1035.921143,1.000000 
	C1035.921143,101.596092 1035.921143,202.192276 1035.921143,302.894226 
	C691.000000,302.894226 346.000000,302.894226 1.000005,302.895447 
	C1.000000,254.571960 1.000000,206.247238 1.234698,157.472809 
	C1.469395,157.023102 1.937203,157.068054 1.942052,157.506683 
	C2.390874,162.066315 2.521530,166.249680 3.327219,170.298721 
	C11.503879,211.390945 33.097340,243.497437 68.362785,266.163422 
	C96.895241,284.501923 128.270447,291.021088 161.783417,287.043610 
	C199.101730,282.614471 230.191650,266.036865 254.272720,237.194809 
	C284.857300,200.563492 294.452637,158.417297 284.401672,112.048996 
	C278.137054,83.148338 263.382599,58.813465 241.471176,38.800968 
	C221.689453,20.733618 198.762161,9.048388 172.505798,3.896988 
	C166.704391,2.758771 160.837006,1.956802 155.000000,1.000000 
M429.625031,251.098618 
	C429.625031,226.476349 429.625031,201.854080 429.625031,176.719940 
	C423.960175,176.719940 418.655365,176.508591 413.387573,176.856781 
	C411.926727,176.953339 409.829468,178.417252 409.302490,179.756744 
	C406.934906,185.774902 405.049072,191.981491 402.950073,198.106613 
	C398.976959,209.700638 394.976837,221.285416 390.658325,233.831726 
	C389.780945,231.630997 389.254639,230.451248 388.834198,229.234924 
	C383.192963,212.915939 377.611084,196.576080 371.856995,180.297089 
	C371.364197,178.902878 369.809540,176.953049 368.649811,176.882675 
	C362.861267,176.531479 357.039856,176.722061 351.249756,176.722061 
	C351.249756,202.340622 351.249756,227.575089 351.249756,252.629883 
	C355.947815,252.629883 360.335724,252.629883 365.326874,252.629883 
	C365.326874,235.849960 365.326874,219.446060 365.326874,203.042145 
	C371.654358,218.461929 377.105865,233.947449 382.403961,249.485275 
	C383.269409,252.023300 384.282288,253.534271 387.253021,253.056259 
	C388.877014,252.794952 390.615234,252.784988 392.235779,253.056503 
	C395.571167,253.615341 396.818054,251.962036 397.796387,249.050522 
	C402.449951,235.201904 407.291046,221.416214 412.090546,207.616852 
	C412.649872,206.008743 413.364746,204.454727 414.007507,202.875641 
	C414.361206,202.956680 414.714905,203.037735 415.068604,203.118774 
	C415.068604,219.612411 415.068604,236.106033 415.068604,253.446594 
	C420.299103,252.934555 424.930176,252.481201 429.625031,251.098618 
M842.223755,276.169647 
	C846.686462,276.169647 851.149231,276.169647 856.057983,276.169647 
	C856.057983,266.264648 856.057983,256.732117 856.057983,246.757065 
	C869.806030,260.664276 891.770386,253.696716 895.621826,235.528885 
	C897.454712,226.883148 897.483459,218.315079 894.798218,209.900787 
	C891.516357,199.616974 883.349670,193.900360 873.041748,194.258545 
	C866.198303,194.496323 860.642578,197.274323 856.166565,203.715286 
	C855.927185,200.382706 855.758179,198.029266 855.586975,195.645721 
	C850.686401,195.645721 846.118042,195.645721 841.432983,195.645721 
	C841.432983,222.565201 841.432983,249.158005 842.223755,276.169647 
M548.685059,195.588577 
	C538.740601,192.593796 530.169128,194.573822 522.976501,203.940765 
	C522.976501,200.338409 522.976501,198.063049 522.976501,195.621399 
	C518.124390,195.621399 513.565430,195.621399 508.907898,195.621399 
	C508.907898,222.601898 508.907898,249.288284 508.907898,276.103271 
	C513.683960,276.103271 518.121094,276.103271 523.210083,276.103271 
	C523.210083,266.317993 523.210083,256.682526 523.210083,246.517242 
	C533.299927,255.277496 544.870361,256.362762 553.787476,249.890640 
	C567.372009,240.030853 567.878845,209.132751 554.572021,198.803284 
	C553.026367,197.603470 551.143250,196.838440 548.685059,195.588577 
M634.639099,175.634674 
	C632.645813,175.760040 630.628723,175.731949 628.663391,176.037247 
	C620.028198,177.378693 612.637024,180.758911 609.102539,189.424271 
	C604.173767,201.507980 610.076843,213.531128 623.194519,217.852005 
	C628.854309,219.716278 634.821838,220.626617 640.545532,222.321640 
	C646.598877,224.114304 648.727051,227.388962 648.076050,232.916580 
	C647.530334,237.549530 643.927551,240.522476 638.169922,240.939209 
	C629.864624,241.540375 622.758545,238.940659 617.199219,232.642929 
	C616.255432,231.573776 615.804077,230.069901 614.938110,228.407684 
	C611.987732,231.932175 610.492065,234.177277 608.554504,235.935272 
	C604.845764,239.300247 605.836060,241.882217 609.135132,244.842407 
	C618.718018,253.440994 630.201660,255.120026 642.260010,253.649017 
	C655.800903,251.997177 662.992004,244.217407 663.726318,231.605423 
	C664.414856,219.780380 658.026550,211.865417 644.820251,208.427231 
	C639.842896,207.131393 634.756897,206.255722 629.770874,204.989670 
	C625.341858,203.865051 622.129333,201.323013 622.530640,196.286758 
	C622.934998,191.212494 626.636169,189.521133 631.110779,188.855896 
	C639.309021,187.637085 646.524719,189.755386 652.979797,195.820282 
	C655.741028,191.988449 658.197754,188.579086 660.712280,185.089600 
	C653.666504,177.374741 644.859680,175.763916 634.639099,175.634674 
M938.949707,194.506226 
	C922.705505,193.203461 910.827759,201.293549 908.022522,215.571014 
	C904.467224,233.666458 911.127441,247.996078 925.186340,252.498962 
	C940.128357,257.284698 954.118408,252.435471 959.617920,240.343033 
	C956.333191,238.286774 953.017761,236.211273 949.757690,234.170441 
	C943.822937,241.434097 937.495239,243.516342 930.267151,240.857651 
	C925.090881,238.953674 922.358948,234.433472 922.445740,227.395981 
	C934.848572,227.395981 947.267639,227.395981 959.592896,227.395981 
	C962.639893,208.260605 955.653259,196.928864 938.949707,194.506226 
M826.470947,241.607147 
	C825.739929,239.546707 824.447510,237.505371 824.376648,235.422470 
	C824.093689,227.106903 824.345825,218.773758 824.097656,210.456146 
	C823.903381,203.942307 820.816223,198.991623 814.738220,196.317062 
	C803.428406,191.340317 786.853271,195.167709 778.288757,204.823151 
	C780.330322,207.811752 782.421631,210.873260 784.618286,214.088882 
	C786.342224,212.651398 787.564392,211.532837 788.886292,210.548141 
	C793.461975,207.139709 798.641113,205.163361 804.276550,206.252335 
	C806.414490,206.665436 809.060974,208.718826 809.881592,210.688614 
	C811.153137,213.740997 808.959961,216.060959 805.855835,216.953979 
	C802.990540,217.778305 800.019775,218.233810 797.148621,219.040756 
	C793.172180,220.158340 789.050110,221.033600 785.340332,222.763184 
	C778.658386,225.878357 776.261169,231.144684 777.026428,239.286896 
	C777.671692,246.153030 781.608032,251.291519 788.189758,253.058044 
	C797.502197,255.557434 805.682922,254.119598 811.107788,245.011459 
	C816.461792,253.587173 823.057678,255.595352 832.113586,251.365143 
	C831.730469,248.239273 831.331848,244.987442 830.917236,241.604767 
	C829.497742,241.679840 828.381165,241.738876 826.470947,241.607147 
M448.069672,225.604874 
	C442.084351,233.100006 442.227966,244.676025 449.404480,249.709854 
	C453.172821,252.353119 458.510040,253.363800 463.267365,253.847702 
	C469.951721,254.527618 474.777954,250.586884 478.272339,244.797394 
	C478.922028,245.975327 479.310425,246.706100 479.722900,247.423035 
	C482.817810,252.802017 490.521210,255.425903 496.767731,252.530411 
	C501.900879,250.150986 497.286133,245.805099 497.962646,242.438782 
	C498.010437,242.200943 497.661407,241.883362 497.431610,241.491562 
	C492.640228,242.841888 491.200256,240.396820 491.254730,236.029938 
	C491.342010,229.036011 491.300323,222.040115 491.272430,215.045212 
	C491.216064,200.912659 485.682343,194.902145 471.595947,194.340149 
	C461.457092,193.935623 452.411102,196.796890 445.223694,204.740921 
	C447.466095,208.013092 449.485809,210.960342 451.623962,214.080368 
	C453.288788,212.694672 454.394867,211.202087 455.852722,210.665848 
	C460.580994,208.926712 465.358337,207.130295 470.275726,206.167847 
	C473.215942,205.592392 476.380219,206.780014 477.051422,210.542542 
	C477.756989,214.497482 475.405914,216.368973 471.965546,217.242905 
	C469.393768,217.896194 466.703400,218.179245 464.218719,219.058945 
	C458.958496,220.921341 453.798218,223.065994 448.069672,225.604874 
M416.154755,101.499947 
	C416.154755,111.266205 416.154755,121.032455 416.154755,130.753922 
	C419.360321,130.753922 421.951294,130.753922 424.897217,130.753922 
	C424.897217,120.202782 424.706055,109.905785 424.994751,99.622261 
	C425.104523,95.712593 425.731598,91.602676 427.156708,87.992050 
	C429.667664,81.630241 436.618195,78.661583 443.784790,80.092003 
	C448.957581,81.124474 451.180145,84.654770 451.429901,92.406540 
	C451.521027,95.234917 451.457764,98.068390 451.458282,100.899544 
	C451.460083,110.855148 451.458954,120.810760 451.458954,130.764709 
	C454.566223,130.764709 457.151550,130.764709 460.037292,130.764709 
	C460.037292,120.384224 459.762543,110.242836 460.165314,100.128426 
	C460.339508,95.753471 461.248260,91.141571 463.004211,87.157761 
	C465.686432,81.072235 472.926208,78.468269 479.604248,80.206863 
	C484.406281,81.457047 486.576447,85.149300 486.780212,92.488075 
	C486.831055,94.318672 486.792969,96.151772 486.793060,97.983727 
	C486.793579,108.918320 486.793365,119.852913 486.793365,130.697037 
	C489.879333,130.697037 492.450684,130.697037 495.108093,130.697037 
	C495.108093,116.734329 495.313385,103.087456 495.047485,89.449776 
	C494.805634,77.044243 486.856812,70.848755 474.511902,72.486488 
	C467.505249,73.416039 462.976318,77.627502 459.126404,83.263885 
	C453.432343,69.771156 435.790924,67.760040 424.591278,82.128471 
	C424.389893,79.006714 424.214661,76.290298 424.048706,73.717659 
	C421.265198,73.717659 418.848999,73.717659 416.154755,73.717659 
	C416.154755,82.885681 416.154755,91.692810 416.154755,101.499947 
M703.285645,194.327530 
	C685.885620,194.126740 675.650452,202.807648 673.358093,219.710526 
	C670.503601,240.758179 683.866577,255.330002 704.787170,253.982681 
	C715.208252,253.311554 723.583008,246.429642 724.971680,237.201035 
	C721.613281,235.373154 718.195374,233.512878 714.779846,231.653931 
	C709.864075,240.921158 702.806580,244.154572 695.627136,240.550766 
	C689.190491,237.319778 688.134827,231.190948 688.088135,224.853241 
	C688.039490,218.249435 688.588623,211.710617 695.313843,207.995987 
	C696.572021,207.301010 698.126282,207.025497 699.581055,206.822800 
	C706.311523,205.884949 711.121094,208.754303 714.047668,215.121201 
	C717.872864,212.344330 721.177063,209.945648 724.530151,207.511475 
	C720.682129,198.018845 713.064331,195.195312 703.285645,194.327530 
M384.280945,99.013313 
	C390.458038,102.844765 392.305054,106.704399 390.975861,113.591629 
	C389.856781,119.390129 385.936371,122.539711 380.350281,123.294418 
	C376.615845,123.798958 372.726471,123.838326 368.979401,123.424904 
	C361.390961,122.587669 356.172546,117.779541 352.000122,111.754852 
	C345.190796,117.990143 345.184570,119.275169 351.578888,124.730553 
	C361.074677,132.831985 379.388153,134.640976 390.212616,128.510742 
	C395.756561,125.371025 399.127014,120.676254 400.100952,114.331474 
	C401.928253,102.427231 397.337921,94.216286 385.889496,90.164291 
	C379.494965,87.901047 372.706757,86.771904 366.237976,84.690414 
	C359.776123,82.611153 356.759827,77.829155 357.449432,71.892021 
	C358.111115,66.195236 361.928223,62.838741 368.691376,61.869179 
	C377.753601,60.570026 385.827423,62.437927 392.498138,69.764961 
	C394.291565,67.406837 395.765137,65.469269 397.670502,62.963955 
	C395.033417,60.902294 392.843597,58.455173 390.107513,57.182564 
	C379.978943,52.471600 369.489319,52.125000 359.202789,56.535294 
	C351.234680,59.951550 347.536469,67.470993 348.590637,76.065056 
	C349.892059,86.674690 357.243042,91.138092 366.368134,93.831406 
	C372.087097,95.519386 377.840179,97.091728 384.280945,99.013313 
M545.341492,87.551163 
	C545.605469,91.569420 543.260193,93.730629 539.825684,94.839073 
	C536.992981,95.753288 534.014038,96.204674 531.149292,97.031944 
	C526.704041,98.315582 522.046814,99.224518 517.938049,101.231277 
	C511.474792,104.388016 509.567169,110.400536 510.238831,117.201622 
	C510.917999,124.078789 514.223694,129.275467 521.224609,131.053818 
	C530.919617,133.516510 539.663696,132.279755 545.724243,122.993439 
	C549.928467,131.389557 553.212524,132.832108 562.178894,130.129883 
	C561.909363,128.207352 561.628662,126.204956 561.357849,124.273621 
	C554.498169,124.340828 554.031372,123.896881 554.016235,117.537521 
	C553.993225,107.884209 554.081299,98.229858 553.965393,88.577835 
	C553.890015,82.305626 551.434692,77.261986 545.525452,74.423218 
	C534.847778,69.293724 519.448425,73.116966 512.162048,82.771652 
	C513.577148,84.650726 515.022156,86.569527 516.478882,88.503883 
	C525.736206,80.466965 529.102722,79.093109 537.270874,80.006523 
	C541.376709,80.465660 544.680054,81.998970 545.341492,87.551163 
M770.950745,201.589005 
	C771.214661,199.972763 771.478577,198.356537 771.923767,195.630157 
	C767.586182,195.630157 763.242126,194.650192 759.681458,195.900726 
	C755.987061,197.198273 753.051208,200.655380 749.812866,203.145538 
	C749.704285,200.947464 749.570801,198.245163 749.439209,195.581390 
	C744.590454,195.581390 740.325378,195.581390 735.818237,195.581390 
	C735.818237,214.755554 735.818237,233.676865 735.818237,252.780212 
	C740.531311,252.780212 745.098938,252.780212 750.036499,252.780212 
	C750.036499,243.100082 749.883728,233.639465 750.073608,224.185730 
	C750.334473,211.198929 755.784851,206.793289 768.368042,209.021713 
	C768.631775,209.068420 768.955688,208.775391 769.450195,208.550507 
	C769.889282,206.589783 770.357666,204.498413 770.950745,201.589005 
M973.009888,230.499969 
	C973.009888,237.920288 973.009888,245.340591 973.009888,252.718140 
	C978.118896,252.718140 982.676270,252.718140 987.749939,252.718140 
	C987.749939,242.478470 987.384705,232.512024 987.843872,222.583710 
	C988.397400,210.615128 993.785217,206.746918 1005.460388,209.019592 
	C1005.889893,209.103210 1006.387390,208.837479 1007.029907,208.695511 
	C1007.782959,204.654556 1008.532227,200.633682 1009.319214,196.410767 
	C999.750000,193.027206 992.584656,195.334045 987.059692,205.459030 
	C987.059692,200.998123 987.059692,198.407608 987.059692,195.707825 
	C982.221008,195.707825 977.703918,195.707825 973.009888,195.707825 
	C973.009888,207.231201 973.009888,218.365585 973.009888,230.499969 
M625.981018,128.602676 
	C633.897156,133.736008 643.644836,133.403030 649.955078,127.682373 
	C649.556335,126.677742 649.204163,125.586998 648.697754,124.573341 
	C648.217773,123.612732 647.576233,122.732864 647.003174,121.813400 
	C645.150208,122.610535 643.695374,123.439308 642.130981,123.873810 
	C635.758728,125.643669 630.356262,123.305977 630.160767,117.902428 
	C629.711914,105.491753 630.018616,93.053741 630.018616,80.329674 
	C636.120056,80.329674 641.909729,80.329674 647.913025,80.329674 
	C647.913025,77.931656 647.913025,75.835197 647.913025,73.220070 
	C641.862854,73.220070 635.965210,73.220070 629.539917,73.220070 
	C629.539917,68.519485 629.539917,64.324524 629.539917,59.777779 
	C626.394653,60.347351 623.846191,60.808849 620.991943,61.325729 
	C620.991943,65.321762 620.991943,69.096199 620.991943,73.313568 
	C617.568848,73.313568 614.493286,73.313568 611.258850,73.313568 
	C611.258850,75.850098 611.258850,77.932236 611.258850,80.436089 
	C614.566345,80.436089 617.651611,80.436089 621.045288,80.436089 
	C621.045288,92.148918 620.636475,103.463936 621.246094,114.723816 
	C621.490540,119.239082 623.974731,123.633072 625.981018,128.602676 
M599.376282,72.963425 
	C591.888306,72.379715 586.517212,75.781471 582.247681,81.909912 
	C582.128113,79.196854 582.008606,76.483795 581.881470,73.597717 
	C579.205383,73.597717 576.799072,73.597717 574.293640,73.597717 
	C574.293640,92.862000 574.293640,111.880936 574.293640,130.687836 
	C577.182983,130.687836 579.757324,130.687836 582.905884,130.687836 
	C582.905884,119.241661 582.491882,108.102440 583.012512,97.007095 
	C583.638000,83.678474 590.846191,78.809937 603.717224,82.171211 
	C604.001953,82.245567 604.351074,82.073387 604.992432,81.958466 
	C605.666138,79.791809 606.380981,77.492744 607.282166,74.594452 
	C604.649719,73.990341 602.450317,73.485611 599.376282,72.963425 
z"/>
<path fill="#FFD69F" opacity="1.000000" stroke="none" 
	d="
M154.531342,1.000000 
	C160.837006,1.956802 166.704391,2.758771 172.505798,3.896988 
	C198.762161,9.048388 221.689453,20.733618 241.471176,38.800968 
	C263.382599,58.813465 278.137054,83.148338 284.401672,112.048996 
	C294.452637,158.417297 284.857300,200.563492 254.272720,237.194809 
	C230.191650,266.036865 199.101730,282.614471 161.783417,287.043610 
	C128.270447,291.021088 96.895241,284.501923 68.362785,266.163422 
	C33.097340,243.497437 11.503879,211.390945 3.327219,170.298721 
	C2.521530,166.249680 2.390874,162.066315 1.973694,157.031784 
	C1.979129,148.055832 1.957771,139.993408 1.941190,131.493668 
	C2.967379,117.909508 5.880499,105.204559 10.833757,92.974953 
	C29.077824,47.930283 61.617802,18.838776 108.397346,5.751575 
	C115.177353,3.854779 122.128204,2.568692 129.000000,1.000000 
	C137.354233,1.000000 145.708466,1.000000 154.531342,1.000000 
M224.500000,81.001892 
	C162.952240,81.001892 101.404465,81.001892 38.983360,81.001892 
	C74.346985,142.890747 109.277328,204.021332 144.687683,265.991974 
	C180.152466,203.919998 215.086502,142.776947 250.381653,81.001892 
	C241.446609,81.001892 233.473297,81.001892 224.500000,81.001892 
z"/>
<path fill="#FFFFFF" opacity="1.000000" stroke="none" 
	d="
M128.531342,1.000000 
	C122.128204,2.568692 115.177353,3.854779 108.397346,5.751575 
	C61.617802,18.838776 29.077824,47.930283 10.833757,92.974953 
	C5.880499,105.204559 2.967379,117.909508 1.707761,131.516724 
	C1.469557,131.977081 1.000000,132.000000 1.000000,132.000000 
	C1.000000,88.407204 1.000000,44.814415 1.000000,1.000000 
	C43.353970,1.000000 85.708328,1.000000 128.531342,1.000000 
z"/>
<path fill="#FFE7C6" opacity="1.000000" stroke="none" 
	d="
M1.000000,132.468643 
	C1.000000,132.000000 1.469557,131.977081 1.702985,131.954025 
	C1.957771,139.993408 1.979129,148.055832 1.968845,156.593170 
	C1.937203,157.068054 1.469395,157.023102 1.234698,157.011551 
	C1.000000,148.979095 1.000000,140.958191 1.000000,132.468643 
z"/>
<path fill="#060606" opacity="1.000000" stroke="none" 
	d="
M429.593140,251.563232 
	C424.930176,252.481201 420.299103,252.934555 415.068604,253.446594 
	C415.068604,236.106033 415.068604,219.612411 415.068604,203.118774 
	C414.714905,203.037735 414.361206,202.956680 414.007507,202.875641 
	C413.364746,204.454727 412.649872,206.008743 412.090546,207.616852 
	C407.291046,221.416214 402.449951,235.201904 397.796387,249.050522 
	C396.818054,251.962036 395.571167,253.615341 392.235779,253.056503 
	C390.615234,252.784988 388.877014,252.794952 387.253021,253.056259 
	C384.282288,253.534271 383.269409,252.023300 382.403961,249.485275 
	C377.105865,233.947449 371.654358,218.461929 365.326874,203.042145 
	C365.326874,219.446060 365.326874,235.849960 365.326874,252.629883 
	C360.335724,252.629883 355.947815,252.629883 351.249756,252.629883 
	C351.249756,227.575089 351.249756,202.340622 351.249756,176.722061 
	C357.039856,176.722061 362.861267,176.531479 368.649811,176.882675 
	C369.809540,176.953049 371.364197,178.902878 371.856995,180.297089 
	C377.611084,196.576080 383.192963,212.915939 388.834198,229.234924 
	C389.254639,230.451248 389.780945,231.630997 390.658325,233.831726 
	C394.976837,221.285416 398.976959,209.700638 402.950073,198.106613 
	C405.049072,191.981491 406.934906,185.774902 409.302490,179.756744 
	C409.829468,178.417252 411.926727,176.953339 413.387573,176.856781 
	C418.655365,176.508591 423.960175,176.719940 429.625031,176.719940 
	C429.625031,201.854080 429.625031,226.476349 429.593140,251.563232 
z"/>
<path fill="#070707" opacity="1.000000" stroke="none" 
	d="
M841.828369,275.960205 
	C841.432983,249.158005 841.432983,222.565201 841.432983,195.645721 
	C846.118042,195.645721 850.686401,195.645721 855.586975,195.645721 
	C855.758179,198.029266 855.927185,200.382706 856.166565,203.715286 
	C860.642578,197.274323 866.198303,194.496323 873.041748,194.258545 
	C883.349670,193.900360 891.516357,199.616974 894.798218,209.900787 
	C897.483459,218.315079 897.454712,226.883148 895.621826,235.528885 
	C891.770386,253.696716 869.806030,260.664276 856.057983,246.757065 
	C856.057983,256.732117 856.057983,266.264648 856.057983,276.169647 
	C851.149231,276.169647 846.686462,276.169647 841.828369,275.960205 
M879.984009,235.188934 
	C880.408752,229.317032 881.630249,223.366333 881.059265,217.592896 
	C880.322693,210.144592 875.964600,206.828003 869.210083,206.693802 
	C862.484985,206.560181 857.472534,210.313889 856.372559,217.383560 
	C855.669373,221.902618 855.749878,226.706711 856.438232,231.237274 
	C857.269348,236.707199 860.632446,240.679382 866.430908,241.621048 
	C871.948608,242.517090 876.632324,240.980774 879.984009,235.188934 
z"/>
<path fill="#040404" opacity="1.000000" stroke="none" 
	d="
M549.050781,195.730194 
	C551.143250,196.838440 553.026367,197.603470 554.572021,198.803284 
	C567.878845,209.132751 567.372009,240.030853 553.787476,249.890640 
	C544.870361,256.362762 533.299927,255.277496 523.210083,246.517242 
	C523.210083,256.682526 523.210083,266.317993 523.210083,276.103271 
	C518.121094,276.103271 513.683960,276.103271 508.907898,276.103271 
	C508.907898,249.288284 508.907898,222.601898 508.907898,195.621399 
	C513.565430,195.621399 518.124390,195.621399 522.976501,195.621399 
	C522.976501,198.063049 522.976501,200.338409 522.976501,203.940765 
	C530.169128,194.573822 538.740601,192.593796 549.050781,195.730194 
M546.184570,211.459534 
	C538.814880,203.386627 526.684937,205.392166 524.274902,215.643387 
	C522.962158,221.227005 523.341980,227.525040 524.359924,233.251709 
	C525.391846,239.056839 530.913025,242.158356 536.775085,241.866241 
	C542.754822,241.568268 546.609314,238.593292 548.100342,232.505402 
	C549.792542,225.595779 549.863770,218.687469 546.184570,211.459534 
z"/>
<path fill="#050505" opacity="1.000000" stroke="none" 
	d="
M635.069397,175.634125 
	C644.859680,175.763916 653.666504,177.374741 660.712280,185.089600 
	C658.197754,188.579086 655.741028,191.988449 652.979797,195.820282 
	C646.524719,189.755386 639.309021,187.637085 631.110779,188.855896 
	C626.636169,189.521133 622.934998,191.212494 622.530640,196.286758 
	C622.129333,201.323013 625.341858,203.865051 629.770874,204.989670 
	C634.756897,206.255722 639.842896,207.131393 644.820251,208.427231 
	C658.026550,211.865417 664.414856,219.780380 663.726318,231.605423 
	C662.992004,244.217407 655.800903,251.997177 642.260010,253.649017 
	C630.201660,255.120026 618.718018,253.440994 609.135132,244.842407 
	C605.836060,241.882217 604.845764,239.300247 608.554504,235.935272 
	C610.492065,234.177277 611.987732,231.932175 614.938110,228.407684 
	C615.804077,230.069901 616.255432,231.573776 617.199219,232.642929 
	C622.758545,238.940659 629.864624,241.540375 638.169922,240.939209 
	C643.927551,240.522476 647.530334,237.549530 648.076050,232.916580 
	C648.727051,227.388962 646.598877,224.114304 640.545532,222.321640 
	C634.821838,220.626617 628.854309,219.716278 623.194519,217.852005 
	C610.076843,213.531128 604.173767,201.507980 609.102539,189.424271 
	C612.637024,180.758911 620.028198,177.378693 628.663391,176.037247 
	C630.628723,175.731949 632.645813,175.760040 635.069397,175.634125 
z"/>
<path fill="#050505" opacity="1.000000" stroke="none" 
	d="
M939.375366,194.579834 
	C955.653259,196.928864 962.639893,208.260605 959.592896,227.395981 
	C947.267639,227.395981 934.848572,227.395981 922.445740,227.395981 
	C922.358948,234.433472 925.090881,238.953674 930.267151,240.857651 
	C937.495239,243.516342 943.822937,241.434097 949.757690,234.170441 
	C953.017761,236.211273 956.333191,238.286774 959.617920,240.343033 
	C954.118408,252.435471 940.128357,257.284698 925.186340,252.498962 
	C911.127441,247.996078 904.467224,233.666458 908.022522,215.571014 
	C910.827759,201.293549 922.705505,193.203461 939.375366,194.579834 
M940.388855,206.557327 
	C930.930847,203.121613 922.096619,209.166550 923.055908,217.760910 
	C930.757935,217.760910 938.444214,217.760910 946.186646,217.760910 
	C946.255615,213.089905 945.223083,209.277191 940.388855,206.557327 
z"/>
<path fill="#050505" opacity="1.000000" stroke="none" 
	d="
M826.867798,241.702530 
	C828.381165,241.738876 829.497742,241.679840 830.917236,241.604767 
	C831.331848,244.987442 831.730469,248.239273 832.113586,251.365143 
	C823.057678,255.595352 816.461792,253.587173 811.107788,245.011459 
	C805.682922,254.119598 797.502197,255.557434 788.189758,253.058044 
	C781.608032,251.291519 777.671692,246.153030 777.026428,239.286896 
	C776.261169,231.144684 778.658386,225.878357 785.340332,222.763184 
	C789.050110,221.033600 793.172180,220.158340 797.148621,219.040756 
	C800.019775,218.233810 802.990540,217.778305 805.855835,216.953979 
	C808.959961,216.060959 811.153137,213.740997 809.881592,210.688614 
	C809.060974,208.718826 806.414490,206.665436 804.276550,206.252335 
	C798.641113,205.163361 793.461975,207.139709 788.886292,210.548141 
	C787.564392,211.532837 786.342224,212.651398 784.618286,214.088882 
	C782.421631,210.873260 780.330322,207.811752 778.288757,204.823151 
	C786.853271,195.167709 803.428406,191.340317 814.738220,196.317062 
	C820.816223,198.991623 823.903381,203.942307 824.097656,210.456146 
	C824.345825,218.773758 824.093689,227.106903 824.376648,235.422470 
	C824.447510,237.505371 825.739929,239.546707 826.867798,241.702530 
M809.128723,237.375244 
	C809.755615,233.277359 810.382507,229.179474 811.067810,224.699829 
	C805.221375,226.280075 800.568420,227.373642 796.025879,228.815018 
	C792.059387,230.073578 790.760071,233.275558 791.357361,237.123886 
	C791.941223,240.885345 794.366760,242.853821 798.222046,243.139053 
	C802.752991,243.474228 806.416565,242.129639 809.128723,237.375244 
z"/>
<path fill="#050505" opacity="1.000000" stroke="none" 
	d="
M448.333313,225.349884 
	C453.798218,223.065994 458.958496,220.921341 464.218719,219.058945 
	C466.703400,218.179245 469.393768,217.896194 471.965546,217.242905 
	C475.405914,216.368973 477.756989,214.497482 477.051422,210.542542 
	C476.380219,206.780014 473.215942,205.592392 470.275726,206.167847 
	C465.358337,207.130295 460.580994,208.926712 455.852722,210.665848 
	C454.394867,211.202087 453.288788,212.694672 451.623962,214.080368 
	C449.485809,210.960342 447.466095,208.013092 445.223694,204.740921 
	C452.411102,196.796890 461.457092,193.935623 471.595947,194.340149 
	C485.682343,194.902145 491.216064,200.912659 491.272430,215.045212 
	C491.300323,222.040115 491.342010,229.036011 491.254730,236.029938 
	C491.200256,240.396820 492.640228,242.841888 497.431610,241.491562 
	C497.661407,241.883362 498.010437,242.200943 497.962646,242.438782 
	C497.286133,245.805099 501.900879,250.150986 496.767731,252.530411 
	C490.521210,255.425903 482.817810,252.802017 479.722900,247.423035 
	C479.310425,246.706100 478.922028,245.975327 478.272339,244.797394 
	C474.777954,250.586884 469.951721,254.527618 463.267365,253.847702 
	C458.510040,253.363800 453.172821,252.353119 449.404480,249.709854 
	C442.227966,244.676025 442.084351,233.100006 448.333313,225.349884 
M460.066101,230.607697 
	C457.664459,233.754456 457.039795,237.633255 459.805054,240.154083 
	C461.907898,242.071060 465.764771,243.074402 468.716583,242.849365 
	C475.936707,242.298950 479.774628,232.955597 476.674255,225.010071 
	C473.944641,225.768860 471.217255,226.448135 468.542145,227.292877 
	C465.874359,228.135315 463.258942,229.143631 460.066101,230.607697 
z"/>
<path fill="#090909" opacity="1.000000" stroke="none" 
	d="
M416.154755,100.999939 
	C416.154755,91.692810 416.154755,82.885681 416.154755,73.717659 
	C418.848999,73.717659 421.265198,73.717659 424.048706,73.717659 
	C424.214661,76.290298 424.389893,79.006714 424.591278,82.128471 
	C435.790924,67.760040 453.432343,69.771156 459.126404,83.263885 
	C462.976318,77.627502 467.505249,73.416039 474.511902,72.486488 
	C486.856812,70.848755 494.805634,77.044243 495.047485,89.449776 
	C495.313385,103.087456 495.108093,116.734329 495.108093,130.697037 
	C492.450684,130.697037 489.879333,130.697037 486.793365,130.697037 
	C486.793365,119.852913 486.793579,108.918320 486.793060,97.983727 
	C486.792969,96.151772 486.831055,94.318672 486.780212,92.488075 
	C486.576447,85.149300 484.406281,81.457047 479.604248,80.206863 
	C472.926208,78.468269 465.686432,81.072235 463.004211,87.157761 
	C461.248260,91.141571 460.339508,95.753471 460.165314,100.128426 
	C459.762543,110.242836 460.037292,120.384224 460.037292,130.764709 
	C457.151550,130.764709 454.566223,130.764709 451.458954,130.764709 
	C451.458954,120.810760 451.460083,110.855148 451.458282,100.899544 
	C451.457764,98.068390 451.521027,95.234917 451.429901,92.406540 
	C451.180145,84.654770 448.957581,81.124474 443.784790,80.092003 
	C436.618195,78.661583 429.667664,81.630241 427.156708,87.992050 
	C425.731598,91.602676 425.104523,95.712593 424.994751,99.622261 
	C424.706055,109.905785 424.897217,120.202782 424.897217,130.753922 
	C421.951294,130.753922 419.360321,130.753922 416.154755,130.753922 
	C416.154755,121.032455 416.154755,111.266205 416.154755,100.999939 
z"/>
<path fill="#050505" opacity="1.000000" stroke="none" 
	d="
M703.721802,194.358673 
	C713.064331,195.195312 720.682129,198.018845 724.530151,207.511475 
	C721.177063,209.945648 717.872864,212.344330 714.047668,215.121201 
	C711.121094,208.754303 706.311523,205.884949 699.581055,206.822800 
	C698.126282,207.025497 696.572021,207.301010 695.313843,207.995987 
	C688.588623,211.710617 688.039490,218.249435 688.088135,224.853241 
	C688.134827,231.190948 689.190491,237.319778 695.627136,240.550766 
	C702.806580,244.154572 709.864075,240.921158 714.779846,231.653931 
	C718.195374,233.512878 721.613281,235.373154 724.971680,237.201035 
	C723.583008,246.429642 715.208252,253.311554 704.787170,253.982681 
	C683.866577,255.330002 670.503601,240.758179 673.358093,219.710526 
	C675.650452,202.807648 685.885620,194.126740 703.721802,194.358673 
z"/>
<path fill="#070707" opacity="1.000000" stroke="none" 
	d="
M383.929443,98.864624 
	C377.840179,97.091728 372.087097,95.519386 366.368134,93.831406 
	C357.243042,91.138092 349.892059,86.674690 348.590637,76.065056 
	C347.536469,67.470993 351.234680,59.951550 359.202789,56.535294 
	C369.489319,52.125000 379.978943,52.471600 390.107513,57.182564 
	C392.843597,58.455173 395.033417,60.902294 397.670502,62.963955 
	C395.765137,65.469269 394.291565,67.406837 392.498138,69.764961 
	C385.827423,62.437927 377.753601,60.570026 368.691376,61.869179 
	C361.928223,62.838741 358.111115,66.195236 357.449432,71.892021 
	C356.759827,77.829155 359.776123,82.611153 366.237976,84.690414 
	C372.706757,86.771904 379.494965,87.901047 385.889496,90.164291 
	C397.337921,94.216286 401.928253,102.427231 400.100952,114.331474 
	C399.127014,120.676254 395.756561,125.371025 390.212616,128.510742 
	C379.388153,134.640976 361.074677,132.831985 351.578888,124.730553 
	C345.184570,119.275169 345.190796,117.990143 352.000122,111.754852 
	C356.172546,117.779541 361.390961,122.587669 368.979401,123.424904 
	C372.726471,123.838326 376.615845,123.798958 380.350281,123.294418 
	C385.936371,122.539711 389.856781,119.390129 390.975861,113.591629 
	C392.305054,106.704399 390.458038,102.844765 383.929443,98.864624 
z"/>
<path fill="#080808" opacity="1.000000" stroke="none" 
	d="
M545.298096,87.134026 
	C544.680054,81.998970 541.376709,80.465660 537.270874,80.006523 
	C529.102722,79.093109 525.736206,80.466965 516.478882,88.503883 
	C515.022156,86.569527 513.577148,84.650726 512.162048,82.771652 
	C519.448425,73.116966 534.847778,69.293724 545.525452,74.423218 
	C551.434692,77.261986 553.890015,82.305626 553.965393,88.577835 
	C554.081299,98.229858 553.993225,107.884209 554.016235,117.537521 
	C554.031372,123.896881 554.498169,124.340828 561.357849,124.273621 
	C561.628662,126.204956 561.909363,128.207352 562.178894,130.129883 
	C553.212524,132.832108 549.928467,131.389557 545.724243,122.993439 
	C539.663696,132.279755 530.919617,133.516510 521.224609,131.053818 
	C514.223694,129.275467 510.917999,124.078789 510.238831,117.201622 
	C509.567169,110.400536 511.474792,104.388016 517.938049,101.231277 
	C522.046814,99.224518 526.704041,98.315582 531.149292,97.031944 
	C534.014038,96.204674 536.992981,95.753288 539.825684,94.839073 
	C543.260193,93.730629 545.605469,91.569420 545.298096,87.134026 
M526.890991,105.082687 
	C521.780579,106.704216 518.665283,109.753410 518.948486,115.555054 
	C519.167175,120.034859 521.183899,123.139351 525.383789,124.614799 
	C532.762512,127.206985 541.319153,123.728157 543.838989,116.307381 
	C545.523743,111.345955 545.621765,105.845749 546.433472,100.563362 
	C539.462219,102.187866 533.571289,103.560631 526.890991,105.082687 
z"/>
<path fill="#040404" opacity="1.000000" stroke="none" 
	d="
M770.888428,201.998016 
	C770.357666,204.498413 769.889282,206.589783 769.450195,208.550507 
	C768.955688,208.775391 768.631775,209.068420 768.368042,209.021713 
	C755.784851,206.793289 750.334473,211.198929 750.073608,224.185730 
	C749.883728,233.639465 750.036499,243.100082 750.036499,252.780212 
	C745.098938,252.780212 740.531311,252.780212 735.818237,252.780212 
	C735.818237,233.676865 735.818237,214.755554 735.818237,195.581390 
	C740.325378,195.581390 744.590454,195.581390 749.439209,195.581390 
	C749.570801,198.245163 749.704285,200.947464 749.812866,203.145538 
	C753.051208,200.655380 755.987061,197.198273 759.681458,195.900726 
	C763.242126,194.650192 767.586182,195.630157 771.923767,195.630157 
	C771.478577,198.356537 771.214661,199.972763 770.888428,201.998016 
z"/>
<path fill="#070707" opacity="1.000000" stroke="none" 
	d="
M973.009888,229.999969 
	C973.009888,218.365585 973.009888,207.231201 973.009888,195.707825 
	C977.703918,195.707825 982.221008,195.707825 987.059692,195.707825 
	C987.059692,198.407608 987.059692,200.998123 987.059692,205.459030 
	C992.584656,195.334045 999.750000,193.027206 1009.319214,196.410767 
	C1008.532227,200.633682 1007.782959,204.654556 1007.029907,208.695511 
	C1006.387390,208.837479 1005.889893,209.103210 1005.460388,209.019592 
	C993.785217,206.746918 988.397400,210.615128 987.843872,222.583710 
	C987.384705,232.512024 987.749939,242.478470 987.749939,252.718140 
	C982.676270,252.718140 978.118896,252.718140 973.009888,252.718140 
	C973.009888,245.340591 973.009888,237.920288 973.009888,229.999969 
z"/>
<path fill="#0C0C0C" opacity="1.000000" stroke="none" 
	d="
M625.710205,128.342468 
	C623.974731,123.633072 621.490540,119.239082 621.246094,114.723816 
	C620.636475,103.463936 621.045288,92.148918 621.045288,80.436089 
	C617.651611,80.436089 614.566345,80.436089 611.258850,80.436089 
	C611.258850,77.932236 611.258850,75.850098 611.258850,73.313568 
	C614.493286,73.313568 617.568848,73.313568 620.991943,73.313568 
	C620.991943,69.096199 620.991943,65.321762 620.991943,61.325729 
	C623.846191,60.808849 626.394653,60.347351 629.539917,59.777779 
	C629.539917,64.324524 629.539917,68.519485 629.539917,73.220070 
	C635.965210,73.220070 641.862854,73.220070 647.913025,73.220070 
	C647.913025,75.835197 647.913025,77.931656 647.913025,80.329674 
	C641.909729,80.329674 636.120056,80.329674 630.018616,80.329674 
	C630.018616,93.053741 629.711914,105.491753 630.160767,117.902428 
	C630.356262,123.305977 635.758728,125.643669 642.130981,123.873810 
	C643.695374,123.439308 645.150208,122.610535 647.003174,121.813400 
	C647.576233,122.732864 648.217773,123.612732 648.697754,124.573341 
	C649.204163,125.586998 649.556335,126.677742 649.955078,127.682373 
	C643.644836,133.403030 633.897156,133.736008 625.710205,128.342468 
z"/>
<path fill="#0A0A0A" opacity="1.000000" stroke="none" 
	d="
M599.813599,72.972153 
	C602.450317,73.485611 604.649719,73.990341 607.282166,74.594452 
	C606.380981,77.492744 605.666138,79.791809 604.992432,81.958466 
	C604.351074,82.073387 604.001953,82.245567 603.717224,82.171211 
	C590.846191,78.809937 583.638000,83.678474 583.012512,97.007095 
	C582.491882,108.102440 582.905884,119.241661 582.905884,130.687836 
	C579.757324,130.687836 577.182983,130.687836 574.293640,130.687836 
	C574.293640,111.880936 574.293640,92.862000 574.293640,73.597717 
	C576.799072,73.597717 579.205383,73.597717 581.881470,73.597717 
	C582.008606,76.483795 582.128113,79.196854 582.247681,81.909912 
	C586.517212,75.781471 591.888306,72.379715 599.813599,72.972153 
z"/>
<path fill="#FF3131" opacity="1.000000" stroke="none" 
	d="
M225.000000,81.001892 
	C233.473297,81.001892 241.446609,81.001892 250.381653,81.001892 
	C215.086502,142.776947 180.152466,203.919998 144.687683,265.991974 
	C109.277328,204.021332 74.346985,142.890747 38.983360,81.001892 
	C101.404465,81.001892 162.952240,81.001892 225.000000,81.001892 
z"/>
<path fill="#FBFBFB" opacity="1.000000" stroke="none" 
	d="
M879.831055,235.546112 
	C876.632324,240.980774 871.948608,242.517090 866.430908,241.621048 
	C860.632446,240.679382 857.269348,236.707199 856.438232,231.237274 
	C855.749878,226.706711 855.669373,221.902618 856.372559,217.383560 
	C857.472534,210.313889 862.484985,206.560181 869.210083,206.693802 
	C875.964600,206.828003 880.322693,210.144592 881.059265,217.592896 
	C881.630249,223.366333 880.408752,229.317032 879.831055,235.546112 
z"/>
<path fill="#FBFBFB" opacity="1.000000" stroke="none" 
	d="
M546.421143,211.764191 
	C549.863770,218.687469 549.792542,225.595779 548.100342,232.505402 
	C546.609314,238.593292 542.754822,241.568268 536.775085,241.866241 
	C530.913025,242.158356 525.391846,239.056839 524.359924,233.251709 
	C523.341980,227.525040 522.962158,221.227005 524.274902,215.643387 
	C526.684937,205.392166 538.814880,203.386627 546.421143,211.764191 
z"/>
<path fill="#FCFCFC" opacity="1.000000" stroke="none" 
	d="
M940.755249,206.738739 
	C945.223083,209.277191 946.255615,213.089905 946.186646,217.760910 
	C938.444214,217.760910 930.757935,217.760910 923.055908,217.760910 
	C922.096619,209.166550 930.930847,203.121613 940.755249,206.738739 
z"/>
<path fill="#F6F6F6" opacity="1.000000" stroke="none" 
	d="
M808.985107,237.737305 
	C806.416565,242.129639 802.752991,243.474228 798.222046,243.139053 
	C794.366760,242.853821 791.941223,240.885345 791.357361,237.123886 
	C790.760071,233.275558 792.059387,230.073578 796.025879,228.815018 
	C800.568420,227.373642 805.221375,226.280075 811.067810,224.699829 
	C810.382507,229.179474 809.755615,233.277359 808.985107,237.737305 
z"/>
<path fill="#F6F6F6" opacity="1.000000" stroke="none" 
	d="
M460.343323,230.343445 
	C463.258942,229.143631 465.874359,228.135315 468.542145,227.292877 
	C471.217255,226.448135 473.944641,225.768860 476.674255,225.010071 
	C479.774628,232.955597 475.936707,242.298950 468.716583,242.849365 
	C465.764771,243.074402 461.907898,242.071060 459.805054,240.154083 
	C457.039795,237.633255 457.664459,233.754456 460.343323,230.343445 
z"/>
<path fill="#FAFAFA" opacity="1.000000" stroke="none" 
	d="
M527.285645,105.008041 
	C533.571289,103.560631 539.462219,102.187866 546.433472,100.563362 
	C545.621765,105.845749 545.523743,111.345955 543.838989,116.307381 
	C541.319153,123.728157 532.762512,127.206985 525.383789,124.614799 
	C521.183899,123.139351 519.167175,120.034859 518.948486,115.555054 
	C518.665283,109.753410 521.780579,106.704216 527.285645,105.008041 
z"/>
</svg>