<?xml version="1.0" encoding="UTF-8"?>
<!DOCTYPE svg PUBLIC "-//W3C//DTD SVG 1.1//EN" "http://www.w3.org/Graphics/SVG/1.1/DTD/svg11.dtd">
<svg xmlns="http://www.w3.org/2000/svg" version="1.1" width="1400px" height="560px" style="shape-rendering:geometricPrecision; text-rendering:geometricPrecision; image-rendering:optimizeQuality; fill-rule:evenodd; clip-rule:evenodd" xmlns:xlink="http://www.w3.org/1999/xlink">
<g><path style="opacity:1" fill="#fefefe" d="M -0.5,-0.5 C 466.167,-0.5 932.833,-0.5 1399.5,-0.5C 1399.5,186.167 1399.5,372.833 1399.5,559.5C 932.833,559.5 466.167,559.5 -0.5,559.5C -0.5,372.833 -0.5,186.167 -0.5,-0.5 Z"/></g>
<g><path style="opacity:1" fill="#080808" d="M 231.5,117.5 C 245.967,116.549 259.3,119.882 271.5,127.5C 272.374,128.525 273.541,129.192 275,129.5C 279.986,127.256 284.819,124.922 289.5,122.5C 314.445,117.704 335.112,125.038 351.5,144.5C 351.866,145.695 352.699,146.361 354,146.5C 365.263,143.721 376.43,144.055 387.5,147.5C 398.322,152.075 406.989,159.242 413.5,169C 444.102,174.934 462.935,193.101 470,223.5C 481.174,232.661 489.174,243.994 494,257.5C 499.999,279.662 499.499,301.662 492.5,323.5C 489.975,327.217 487.975,331.217 486.5,335.5C 485.241,336.979 484.241,338.646 483.5,340.5C 478.901,346.438 473.901,352.105 468.5,357.5C 466.223,358.449 464.223,359.782 462.5,361.5C 454.205,365.073 445.538,366.74 436.5,366.5C 427.54,365.585 418.54,365.252 409.5,365.5C 403.063,364.983 397.397,366.65 392.5,370.5C 389.843,370.162 387.51,370.829 385.5,372.5C 382.722,386.558 376.388,398.725 366.5,409C 350.503,418.5 333.169,423.334 314.5,423.5C 302.58,423.251 290.914,424.251 279.5,426.5C 279.167,426.5 278.833,426.5 278.5,426.5C 273.558,427.091 268.892,428.591 264.5,431C 263.748,431.671 263.414,432.504 263.5,433.5C 254.39,438.61 247.724,445.943 243.5,455.5C 239.465,460.903 236.465,466.903 234.5,473.5C 230.959,483.483 229.292,493.816 229.5,504.5C 228.134,511.373 223.801,514.04 216.5,512.5C 215.928,511.027 215.095,509.693 214,508.5C 213.501,503.511 213.334,498.511 213.5,493.5C 214.644,491.9 215.811,490.233 217,488.5C 221.713,467.079 230.713,447.745 244,430.5C 252.853,421.989 263.353,416.489 275.5,414C 293.795,412.042 312.129,410.375 330.5,409C 355.731,405.269 370.064,390.769 373.5,365.5C 382.58,363.294 390.913,359.46 398.5,354C 412.619,350.985 426.786,350.818 441,353.5C 444.921,353.545 448.755,353.045 452.5,352C 483.759,327.482 492.926,296.315 480,258.5C 474.772,247.369 467.605,237.702 458.5,229.5C 451.746,200.747 433.746,184.081 404.5,179.5C 396.15,165.487 383.817,158.153 367.5,157.5C 360.435,158.284 353.435,159.118 346.5,160C 338.557,148.726 328.224,140.392 315.5,135C 309.903,133.544 304.237,133.211 298.5,134C 290.068,137.05 282.068,140.884 274.5,145.5C 269.537,143.717 265.203,140.883 261.5,137C 249.193,129.262 236.527,128.595 223.5,135C 219.652,139.016 215.652,142.849 211.5,146.5C 186.145,138.229 165.812,145.063 150.5,167C 114.269,169.064 94.602,188.23 91.5,224.5C 76.2961,229.017 65.1294,238.35 58,252.5C 57.3333,258.833 57.3333,265.167 58,271.5C 60.3681,277.605 62.5347,283.771 64.5,290C 51.0105,327.831 62.5105,354.664 99,370.5C 99.4252,388.432 104.092,405.098 113,420.5C 125.516,436.512 142.016,445.345 162.5,447C 170.745,447.183 178.912,447.683 187,448.5C 187.781,449.729 188.281,451.062 188.5,452.5C 185.264,466.708 184.264,481.041 185.5,495.5C 185.12,503.253 181.12,506.42 173.5,505C 172.333,503.833 171.167,502.667 170,501.5C 171.032,487.848 172.198,474.181 173.5,460.5C 152.598,461.03 133.598,455.53 116.5,444C 96.4987,426.544 86.832,404.377 87.5,377.5C 81.6172,376.727 76.2838,374.56 71.5,371C 66.6025,366.271 61.9359,361.438 57.5,356.5C 53.9533,350.74 50.9533,344.74 48.5,338.5C 48.5,338.167 48.5,337.833 48.5,337.5C 45.3679,321.842 46.0346,306.342 50.5,291C 50.2994,288.889 49.6327,287.055 48.5,285.5C 43.5303,270.866 43.3636,256.199 48,241.5C 52.5871,233.746 58.4204,227.079 65.5,221.5C 70.4813,218.507 75.8147,216.507 81.5,215.5C 81.4456,196.493 88.779,180.993 103.5,169C 110.342,165.078 117.342,161.412 124.5,158C 130.117,156.948 135.784,156.282 141.5,156C 145.725,152.278 149.392,148.112 152.5,143.5C 160.41,137.878 169.077,133.878 178.5,131.5C 188.386,129.836 198.386,129.003 208.5,129C 210.66,128.004 212.327,126.504 213.5,124.5C 215.421,123.637 217.421,122.971 219.5,122.5C 223.797,121.345 227.797,119.679 231.5,117.5 Z"/></g>
<g><path style="opacity:1" fill="#b3b3b3" d="M 231.5,117.5 C 227.797,119.679 223.797,121.345 219.5,122.5C 222.768,119.293 226.768,117.627 231.5,117.5 Z"/></g>
<g><path style="opacity:1" fill="#c6c6c6" d="M 289.5,122.5 C 284.819,124.922 279.986,127.256 275,129.5C 273.541,129.192 272.374,128.525 271.5,127.5C 273.527,127.662 275.527,127.495 277.5,127C 281.173,124.665 285.173,123.165 289.5,122.5 Z"/></g>
<g><path style="opacity:1" fill="#cccccc" d="M 213.5,124.5 C 212.327,126.504 210.66,128.004 208.5,129C 198.386,129.003 188.386,129.836 178.5,131.5C 179.589,129.883 181.256,129.05 183.5,129C 191.5,128.667 199.5,128.333 207.5,128C 209.063,126.053 211.063,124.886 213.5,124.5 Z"/></g>
<g><path style="opacity:1" fill="#fae1e9" d="M 213.5,493.5 C 204.895,491.529 195.895,490.862 186.5,491.5C 186.768,493.099 186.434,494.432 185.5,495.5C 184.264,481.041 185.264,466.708 188.5,452.5C 188.281,451.062 187.781,449.729 187,448.5C 178.912,447.683 170.745,447.183 162.5,447C 142.016,445.345 125.516,436.512 113,420.5C 104.092,405.098 99.4252,388.432 99,370.5C 62.5105,354.664 51.0105,327.831 64.5,290C 62.5347,283.771 60.3681,277.605 58,271.5C 57.3333,265.167 57.3333,258.833 58,252.5C 65.1294,238.35 76.2961,229.017 91.5,224.5C 94.602,188.23 114.269,169.064 150.5,167C 165.812,145.063 186.145,138.229 211.5,146.5C 215.652,142.849 219.652,139.016 223.5,135C 236.527,128.595 249.193,129.262 261.5,137C 265.203,140.883 269.537,143.717 274.5,145.5C 282.068,140.884 290.068,137.05 298.5,134C 304.237,133.211 309.903,133.544 315.5,135C 328.224,140.392 338.557,148.726 346.5,160C 353.435,159.118 360.435,158.284 367.5,157.5C 383.817,158.153 396.15,165.487 404.5,179.5C 433.746,184.081 451.746,200.747 458.5,229.5C 467.605,237.702 474.772,247.369 480,258.5C 492.926,296.315 483.759,327.482 452.5,352C 448.755,353.045 444.921,353.545 441,353.5C 426.786,350.818 412.619,350.985 398.5,354C 390.913,359.46 382.58,363.294 373.5,365.5C 370.064,390.769 355.731,405.269 330.5,409C 312.129,410.375 293.795,412.042 275.5,414C 263.353,416.489 252.853,421.989 244,430.5C 230.713,447.745 221.713,467.079 217,488.5C 215.811,490.233 214.644,491.9 213.5,493.5 Z"/></g>
<g><path style="opacity:1" fill="#d4d4d4" d="M 387.5,147.5 C 376.43,144.055 365.263,143.721 354,146.5C 352.699,146.361 351.866,145.695 351.5,144.5C 362.876,141.67 374.209,141.836 385.5,145C 386.756,145.417 387.423,146.25 387.5,147.5 Z"/></g>
<g><path style="opacity:1" fill="#050405" d="M 254.5,171.5 C 257.505,171.253 260.005,172.253 262,174.5C 262.667,245.833 262.667,317.167 262,388.5C 259.163,390.585 256.163,390.919 253,389.5C 252.333,317.5 252.333,245.5 253,173.5C 253.717,172.956 254.217,172.289 254.5,171.5 Z"/></g>
<g><path style="opacity:1" fill="#0b0a0a" d="M 575.5,210.5 C 583.02,210.267 590.353,211.267 597.5,213.5C 604.954,211.014 611.454,212.347 617,217.5C 622.955,226.32 625.289,235.987 624,246.5C 623.337,253.162 619.671,256.162 613,255.5C 610.37,255.536 607.87,255.036 605.5,254C 601.388,249.609 597.888,244.776 595,239.5C 587.167,231.108 578.834,230.442 570,237.5C 566.11,245.179 567.61,251.679 574.5,257C 585.337,263.586 596.337,269.919 607.5,276C 612.502,280.671 616.335,286.171 619,292.5C 620.218,287.545 620.551,282.545 620,277.5C 615.456,276.536 611.456,274.536 608,271.5C 606.703,266.883 607.87,263.05 611.5,260C 622.771,253.686 634.771,250.019 647.5,249C 651.466,251.763 653.633,255.596 654,260.5C 663.884,251.762 675.384,247.595 688.5,248C 700.542,251.041 708.375,258.541 712,270.5C 729.152,250.894 750.319,244.394 775.5,251C 783.513,254.189 788.346,260.022 790,268.5C 809.362,248.695 831.862,243.862 857.5,254C 862.295,257.755 865.462,262.588 867,268.5C 882.634,251.511 901.8,245.345 924.5,250C 930.074,252.194 934.574,255.694 938,260.5C 938.5,253.508 938.666,246.508 938.5,239.5C 929.442,238.947 925.942,234.281 928,225.5C 935.631,218.767 944.464,214.267 954.5,212C 960.791,209.913 966.958,210.08 973,212.5C 974.872,215.205 975.705,218.205 975.5,221.5C 973.671,232.795 972.004,244.128 970.5,255.5C 970.833,256.167 971.167,256.833 971.5,257.5C 976.932,254.45 982.598,251.95 988.5,250C 997.168,248.664 1005.5,249.664 1013.5,253C 1016.27,255.383 1018.44,258.217 1020,261.5C 1036.22,223.973 1064.72,207.473 1105.5,212C 1110,213.042 1114.34,214.542 1118.5,216.5C 1124.47,214.931 1128.97,216.931 1132,222.5C 1137.09,230.131 1138.76,238.464 1137,247.5C 1133.91,254.128 1128.74,256.628 1121.5,255C 1119.83,254 1118.17,253 1116.5,252C 1112.28,246.536 1107.61,241.536 1102.5,237C 1088.95,230.953 1077.45,233.786 1068,245.5C 1056.48,263.1 1053.48,282.1 1059,302.5C 1064.84,320.501 1076.67,326.334 1094.5,320C 1099.9,315.705 1101.73,310.205 1100,303.5C 1093.84,302.757 1089.17,299.757 1086,294.5C 1085.27,285.55 1089.44,280.383 1098.5,279C 1112.9,276.734 1127.23,277.067 1141.5,280C 1143.52,280.45 1145.35,281.283 1147,282.5C 1150.32,267.332 1151.65,251.998 1151,236.5C 1143.05,232.616 1140.72,226.616 1144,218.5C 1148.02,214.601 1152.85,212.434 1158.5,212C 1177.83,211.333 1197.17,211.333 1216.5,212C 1225.07,212.375 1232.9,214.875 1240,219.5C 1242.73,211.716 1247.9,209.216 1255.5,212C 1269.33,212.167 1283.17,212.333 1297,212.5C 1314.24,212.586 1331.41,212.086 1348.5,211C 1352.33,213.488 1354.49,216.988 1355,221.5C 1355.67,231.167 1355.67,240.833 1355,250.5C 1351.8,259.714 1345.97,261.881 1337.5,257C 1334.51,250.701 1331.51,244.368 1328.5,238C 1323.69,235.161 1318.86,234.994 1314,237.5C 1308.51,265.6 1305.18,293.933 1304,322.5C 1312.86,326.21 1314.86,332.21 1310,340.5C 1307.91,341.794 1305.75,342.961 1303.5,344C 1289.21,345.557 1274.87,345.891 1260.5,345C 1250.86,342.548 1248.02,336.715 1252,327.5C 1255.33,324.667 1258.99,322.334 1263,320.5C 1269.62,292.851 1273.62,264.851 1275,236.5C 1271.52,235.378 1268.02,235.544 1264.5,237C 1256.62,242.88 1252.12,250.713 1251,260.5C 1246.5,273 1238,281.5 1225.5,286C 1220.23,287.587 1214.9,288.92 1209.5,290C 1200.59,290.181 1191.76,290.681 1183,291.5C 1179.94,301.667 1179.1,312 1180.5,322.5C 1188.49,324.469 1191.32,329.469 1189,337.5C 1185.06,342.432 1179.89,344.932 1173.5,345C 1161.5,345.667 1149.5,345.667 1137.5,345C 1128.86,343.23 1125.7,338.064 1128,329.5C 1129.05,327.91 1130.21,326.41 1131.5,325C 1134.66,324.063 1137.49,322.563 1140,320.5C 1142.3,313.871 1143.46,307.204 1143.5,300.5C 1141.08,301.457 1138.92,302.791 1137,304.5C 1133.17,326.001 1120.67,339.501 1099.5,345C 1078.42,351.352 1058.42,349.019 1039.5,338C 1035.37,334.869 1031.53,331.369 1028,327.5C 1024.45,334.055 1019.28,338.888 1012.5,342C 1004.24,345.981 995.573,347.648 986.5,347C 981.514,344.872 979.18,341.039 979.5,335.5C 982.308,318.679 984.974,301.845 987.5,285C 987.346,276.046 983.346,274.046 975.5,279C 973.877,281.08 972.377,283.246 971,285.5C 966.83,299.522 964.496,313.855 964,328.5C 963.605,332.019 962.605,335.352 961,338.5C 952.053,344.528 942.22,347.028 931.5,346C 927.455,343.747 925.622,340.247 926,335.5C 909.852,346.263 892.352,349.43 873.5,345C 866.204,341.935 860.371,337.102 856,330.5C 841.084,342.857 823.917,348.357 804.5,347C 793.753,344.972 785.42,339.472 779.5,330.5C 764.46,343.124 747.127,348.624 727.5,347C 714.8,344.466 705.8,337.299 700.5,325.5C 694.589,332.911 687.589,339.078 679.5,344C 668.233,349.043 657.233,348.543 646.5,342.5C 644.617,347 644.117,351.667 645,356.5C 648.621,358.131 651.621,360.465 654,363.5C 655.46,371.719 651.96,376.219 643.5,377C 633.862,378.314 624.196,378.648 614.5,378C 608.671,377.95 603.838,375.783 600,371.5C 599.183,368.036 599.517,364.702 601,361.5C 603.488,359.257 606.154,357.257 609,355.5C 611.766,346.679 613.099,337.679 613,328.5C 598.514,343.812 580.681,350.312 559.5,348C 545.347,347.17 533.514,341.67 524,331.5C 519.488,321.845 518.488,311.845 521,301.5C 525.464,292.925 531.797,291.259 540,296.5C 544.042,305.427 549.209,313.594 555.5,321C 564.684,326.287 573.184,325.454 581,318.5C 583.52,312.983 582.853,307.983 579,303.5C 569.257,296.376 559.091,289.876 548.5,284C 532.2,271.422 527.367,255.255 534,235.5C 543.229,219.422 557.063,211.088 575.5,210.5 Z"/></g>
<g><path style="opacity:1" fill="#060506" d="M 222.5,211.5 C 225.565,211.241 228.065,212.241 230,214.5C 230.667,258.833 230.667,303.167 230,347.5C 229.242,349.91 227.575,350.91 225,350.5C 222.966,350.646 221.299,349.98 220,348.5C 219.333,303.5 219.333,258.5 220,213.5C 220.995,212.934 221.828,212.267 222.5,211.5 Z"/></g>
<g><path style="opacity:1" fill="#040303" d="M 286.5,211.5 C 289.961,211.146 292.461,212.479 294,215.5C 294.667,259.5 294.667,303.5 294,347.5C 293.242,349.91 291.575,350.91 289,350.5C 286.966,350.646 285.299,349.98 284,348.5C 283.333,303.833 283.333,259.167 284,214.5C 285.045,213.627 285.878,212.627 286.5,211.5 Z"/></g>
<g><path style="opacity:1" fill="#e6bdca" d="M 567.5,217.5 C 577.856,216.972 588.022,217.972 598,220.5C 601.827,219.761 605.66,219.594 609.5,220C 617.018,228.645 619.018,238.312 615.5,249C 613.833,249.667 612.167,249.667 610.5,249C 605.642,242.296 600.309,235.963 594.5,230C 583.049,222.928 572.883,224.428 564,234.5C 560.462,242.034 560.795,249.367 565,256.5C 568.201,260.036 571.701,263.203 575.5,266C 584.167,270.667 592.833,275.333 601.5,280C 613.756,290.519 616.923,303.352 611,318.5C 606.397,327.065 599.564,333.232 590.5,337C 570.636,344.326 551.636,342.659 533.5,332C 528.238,326.226 525.905,319.393 526.5,311.5C 526.158,307.802 526.991,304.469 529,301.5C 530.726,300.424 532.559,300.257 534.5,301C 538.127,307.085 541.627,313.252 545,319.5C 553.004,330.057 563.504,333.557 576.5,330C 589.559,323.729 592.726,314.229 586,301.5C 583.833,299.333 581.667,297.167 579.5,295C 569.666,289.251 559.999,283.251 550.5,277C 539.897,267.857 536.063,256.357 539,242.5C 544.339,229.322 553.839,220.989 567.5,217.5 Z"/></g>
<g><path style="opacity:1" fill="#e7bdca" d="M 960.5,217.5 C 963.167,217.5 965.833,217.5 968.5,217.5C 966.745,233.204 964.912,248.871 963,264.5C 965.153,266.444 967.653,266.944 970.5,266C 978.775,260.11 987.942,256.61 998,255.5C 1011.33,256.95 1017.17,264.45 1015.5,278C 1015.18,287.929 1014.01,297.762 1012,307.5C 1011.33,312.167 1011.33,316.833 1012,321.5C 1014.2,324.125 1017.03,325.125 1020.5,324.5C 1020.51,326.308 1020.01,327.975 1019,329.5C 1009.74,337.644 999.068,340.978 987,339.5C 988.299,322.737 990.633,306.07 994,289.5C 996.202,271.531 989.035,266.031 972.5,273C 966.186,278.793 962.352,285.959 961,294.5C 958.957,307.468 957.29,320.468 956,333.5C 949.215,338.037 941.715,340.037 933.5,339.5C 936.33,315.839 939.83,292.173 944,268.5C 945.433,258.203 945.767,247.869 945,237.5C 941.53,234.196 937.696,231.529 933.5,229.5C 936.285,226.6 939.618,224.434 943.5,223C 949.254,221.025 954.921,219.192 960.5,217.5 Z"/></g>
<g><path style="opacity:1" fill="#e6bdca" d="M 1082.5,217.5 C 1094.03,216.322 1105.03,218.156 1115.5,223C 1118.2,223.253 1120.87,223.253 1123.5,223C 1129.2,229.444 1131.7,236.944 1131,245.5C 1128.79,248.29 1125.96,249.123 1122.5,248C 1117.84,242.339 1112.84,237.006 1107.5,232C 1088.9,222.724 1073.4,226.557 1061,243.5C 1049.13,263.325 1046.46,284.325 1053,306.5C 1060.54,325.686 1074.37,332.852 1094.5,328C 1105.64,321.547 1109.47,312.047 1106,299.5C 1102.95,297.036 1099.45,295.536 1095.5,295C 1092.14,292.966 1091.81,290.632 1094.5,288C 1097.57,286.154 1100.9,285.154 1104.5,285C 1114.5,284.333 1124.5,284.333 1134.5,285C 1136.79,285.822 1139.12,286.489 1141.5,287C 1143.65,289.075 1143.98,291.408 1142.5,294C 1138.13,295.267 1134.3,297.433 1131,300.5C 1129.29,317.851 1120.45,329.684 1104.5,336C 1085.32,343.643 1066.32,343.31 1047.5,335C 1027.54,321.502 1019.37,302.668 1023,278.5C 1029.19,244.81 1049.02,224.477 1082.5,217.5 Z"/></g>
<g><path style="opacity:1" fill="#e7becb" d="M 1249.5,217.5 C 1251.48,217.995 1253.48,218.495 1255.5,219C 1283.17,219.667 1310.83,219.667 1338.5,219C 1341.33,217.491 1344.16,217.325 1347,218.5C 1349.43,227.342 1350.09,236.342 1349,245.5C 1348.7,247.888 1347.86,250.055 1346.5,252C 1344.3,252.825 1342.47,252.325 1341,250.5C 1339.59,245.261 1337.59,240.261 1335,235.5C 1333.06,232.894 1330.56,231.061 1327.5,230C 1322.83,229.333 1318.17,229.333 1313.5,230C 1311.38,231.122 1309.54,232.622 1308,234.5C 1302.95,261.501 1299.12,288.667 1296.5,316C 1296.47,319.59 1296.97,323.09 1298,326.5C 1300.33,328.167 1302.67,329.833 1305,331.5C 1306.03,334.217 1305.2,336.051 1302.5,337C 1288.54,338.554 1274.54,338.888 1260.5,338C 1257.69,336.695 1256.86,334.528 1258,331.5C 1261.33,329.5 1264.67,327.5 1268,325.5C 1269.64,321.608 1270.97,317.608 1272,313.5C 1275.1,297.58 1277.77,281.58 1280,265.5C 1281.77,254.89 1282.44,244.223 1282,233.5C 1280.68,231.513 1278.85,230.346 1276.5,230C 1266.18,227.663 1258.01,230.829 1252,239.5C 1251.34,233.68 1249.17,228.513 1245.5,224C 1246.72,221.722 1248.05,219.555 1249.5,217.5 Z"/></g>
<g><path style="opacity:1" fill="#e7bdca" d="M 1158.5,218.5 C 1178.84,218.333 1199.17,218.5 1219.5,219C 1226.09,219.972 1232.09,222.305 1237.5,226C 1232.88,234.962 1231.05,244.462 1232,254.5C 1234.63,258.595 1238.46,260.595 1243.5,260.5C 1239.17,270.327 1231.84,276.827 1221.5,280C 1217.34,281.737 1213.01,282.737 1208.5,283C 1199.5,283.333 1190.5,283.667 1181.5,284C 1180.07,284.465 1178.9,285.299 1178,286.5C 1175.58,291.194 1174.24,296.194 1174,301.5C 1173.33,309.5 1173.33,317.5 1174,325.5C 1176.66,327.996 1179.66,329.996 1183,331.5C 1183.71,333.367 1183.21,334.867 1181.5,336C 1179.29,337.044 1176.95,337.71 1174.5,338C 1162.17,338.667 1149.83,338.667 1137.5,338C 1134.69,336.695 1133.86,334.528 1135,331.5C 1137.69,329.818 1140.52,328.318 1143.5,327C 1145.32,325.2 1146.48,323.034 1147,320.5C 1154.15,292.264 1157.82,263.597 1158,234.5C 1154.81,231.647 1151.98,228.48 1149.5,225C 1149.44,223.289 1150.11,221.956 1151.5,221C 1154,220.302 1156.34,219.469 1158.5,218.5 Z"/></g>
<g><path style="opacity:1" fill="#0c0b0b" d="M 1190.5,228.5 C 1219.29,225.79 1228.46,237.79 1218,264.5C 1213.13,269.24 1207.29,272.073 1200.5,273C 1193.17,273.5 1185.84,273.666 1178.5,273.5C 1179.13,259.893 1181.3,246.56 1185,233.5C 1186.73,231.598 1188.56,229.931 1190.5,228.5 Z"/></g>
<g><path style="opacity:1" fill="#dcb5c1" d="M 1241.5,233.5 C 1242.5,233.414 1243.33,233.748 1244,234.5C 1245.44,239.762 1245.77,245.096 1245,250.5C 1243.1,252.016 1240.94,252.683 1238.5,252.5C 1238.12,245.93 1239.12,239.597 1241.5,233.5 Z"/></g>
<g><path style="opacity:1" fill="#f9f9f9" d="M 1195.5,234.5 C 1214.06,233.897 1219.89,242.23 1213,259.5C 1209.75,263.366 1205.58,265.533 1200.5,266C 1195.47,266.829 1190.47,266.662 1185.5,265.5C 1186.59,255.441 1188.59,245.607 1191.5,236C 1193.06,235.79 1194.39,235.29 1195.5,234.5 Z"/></g>
<g><path style="opacity:1" fill="#121011" d="M 188.5,236.5 C 192.007,235.994 195.174,236.66 198,238.5C 198.667,267.167 198.667,295.833 198,324.5C 194.667,327.167 191.333,327.167 188,324.5C 187.176,295.095 187.342,265.761 188.5,236.5 Z"/></g>
<g><path style="opacity:1" fill="#020202" d="M 316.5,236.5 C 320.007,235.994 323.174,236.66 326,238.5C 326.667,266.833 326.667,295.167 326,323.5C 322.574,328.701 319.24,328.701 316,323.5C 315.183,294.458 315.35,265.458 316.5,236.5 Z"/></g>
<g><path style="opacity:1" fill="#0a0909" d="M 157.5,252.5 C 160.685,252.02 163.519,252.686 166,254.5C 166.667,272.5 166.667,290.5 166,308.5C 162.667,311.167 159.333,311.167 156,308.5C 155.333,290.5 155.333,272.5 156,254.5C 156.717,253.956 157.217,253.289 157.5,252.5 Z"/></g>
<g><path style="opacity:1" fill="#040303" d="M 350.5,251.5 C 353.652,250.959 356.152,251.959 358,254.5C 358.667,272.5 358.667,290.5 358,308.5C 354.667,311.167 351.333,311.167 348,308.5C 347.167,290.158 347.334,271.824 348.5,253.5C 349.522,253.145 350.189,252.478 350.5,251.5 Z"/></g>
<g><path style="opacity:1" fill="#e6bdc9" d="M 678.5,254.5 C 697.292,253.792 706.126,262.792 705,281.5C 703.036,285.333 701.369,289.333 700,293.5C 701.673,314.819 692.839,329.986 673.5,339C 668.238,340.439 662.904,340.772 657.5,340C 653.162,338.164 648.828,336.33 644.5,334.5C 642.617,334.876 641.117,335.876 640,337.5C 637.845,344.366 637.178,351.366 638,358.5C 638.465,359.931 639.299,361.097 640.5,362C 643.503,363.166 646.17,364.833 648.5,367C 647.833,367.667 647.167,368.333 646.5,369C 633.898,371.864 621.232,372.197 608.5,370C 607.196,369.196 606.529,368.029 606.5,366.5C 608.282,363.681 610.782,361.681 614,360.5C 615.64,356.608 616.973,352.608 618,348.5C 621.275,325.849 624.442,303.182 627.5,280.5C 627.242,272.908 623.242,268.908 615.5,268.5C 614.479,267.998 614.312,267.332 615,266.5C 624.491,260.113 634.824,256.779 646,256.5C 646.068,261.003 647.235,265.17 649.5,269C 650.333,269.167 651.167,269.333 652,269.5C 657.461,266.059 662.961,262.559 668.5,259C 672.042,257.725 675.375,256.225 678.5,254.5 Z"/></g>
<g><path style="opacity:1" fill="#e5bcc9" d="M 752.5,254.5 C 760.991,253.598 768.991,255.098 776.5,259C 783.375,264.834 785.208,272.001 782,280.5C 778.167,289.667 771.667,296.167 762.5,300C 751.971,304.448 740.971,306.282 729.5,305.5C 730.099,327.594 740.765,334.761 761.5,327C 765.639,324.361 769.639,321.528 773.5,318.5C 775.446,320.044 775.946,322.044 775,324.5C 758.074,339.859 738.907,343.692 717.5,336C 705.762,327.555 703.262,317.055 710,304.5C 711.925,296.633 712.925,288.633 713,280.5C 722.609,266.384 735.776,257.718 752.5,254.5 Z"/></g>
<g><path style="opacity:1" fill="#e5bcc9" d="M 830.5,254.5 C 839.173,253.561 847.173,255.394 854.5,260C 859.748,266.382 860.915,273.548 858,281.5C 854.21,289.991 848.044,296.157 839.5,300C 828.648,304.712 817.315,306.545 805.5,305.5C 807.684,329.824 819.684,336.324 841.5,325C 844.333,322.833 847.167,320.667 850,318.5C 852.207,319.997 852.874,321.997 852,324.5C 838.466,336.513 822.633,341.679 804.5,340C 792.333,337.167 784.833,329.667 782,317.5C 780.4,282.66 796.567,261.66 830.5,254.5 Z"/></g>
<g><path style="opacity:1" fill="#e6bdc9" d="M 904.5,254.5 C 912.669,253.549 920.335,255.049 927.5,259C 934.94,265.265 936.44,272.765 932,281.5C 931.097,282.701 929.931,283.535 928.5,284C 925.167,284.667 921.833,284.667 918.5,284C 917.667,283.167 916.833,282.333 916,281.5C 915.667,276.5 915.333,271.5 915,266.5C 913.22,263.697 910.72,262.031 907.5,261.5C 898.715,262.119 892.549,266.453 889,274.5C 882.065,289.309 880.732,304.643 885,320.5C 891.905,330.758 901.071,333.258 912.5,328C 917.577,325.42 922.244,322.253 926.5,318.5C 928.446,320.044 928.946,322.044 928,324.5C 913.669,337.628 896.835,342.462 877.5,339C 863.836,333.677 857.503,323.677 858.5,309C 859.25,289.497 867.583,274.164 883.5,263C 890.182,259.058 897.182,256.225 904.5,254.5 Z"/></g>
<g><path style="opacity:1" fill="#0b090a" d="M 747.5,261.5 C 756.673,260.071 761.673,263.905 762.5,273C 761.802,283.736 756.802,291.736 747.5,297C 731.378,302.213 726.211,297.046 732,281.5C 734.563,272.656 739.73,265.989 747.5,261.5 Z"/></g>
<g><path style="opacity:1" fill="#0b090a" d="M 824.5,261.5 C 833.864,260.205 838.53,264.205 838.5,273.5C 836.563,290.944 826.896,299.111 809.5,298C 807.077,296.36 806.077,294.027 806.5,291C 808.082,278.311 814.082,268.478 824.5,261.5 Z"/></g>
<g><path style="opacity:1" fill="#0a0909" d="M 665.5,268.5 C 673.924,266.628 679.757,269.628 683,277.5C 684.988,295.578 680.655,311.911 670,326.5C 664.931,331.948 658.764,333.781 651.5,332C 646.849,329.209 644.349,325.042 644,319.5C 642.771,304.197 646.438,290.197 655,277.5C 658.103,273.886 661.603,270.886 665.5,268.5 Z"/></g>
<g><path style="opacity:1" fill="#f6f6f6" d="M 741.5,291.5 C 740.167,291.5 738.833,291.5 737.5,291.5C 737.5,290.5 737.5,289.5 737.5,288.5C 738.452,280.488 742.118,273.988 748.5,269C 750.5,268.333 752.5,268.333 754.5,269C 756.357,279.996 752.023,287.496 741.5,291.5 Z"/></g>
<g><path style="opacity:1" fill="#f5f5f5" d="M 825.5,268.5 C 828.044,268.104 830.211,268.771 832,270.5C 831.942,282.394 826.109,289.728 814.5,292.5C 813.922,282.573 817.588,274.573 825.5,268.5 Z"/></g>
<g><path style="opacity:1" fill="#fafafa" d="M 903.5,268.5 C 905.467,268.261 907.301,268.594 909,269.5C 906.551,288.217 914.384,294.883 932.5,289.5C 932.833,290.667 933.167,291.833 933.5,293C 932.444,299.502 931.444,306.002 930.5,312.5C 927.813,312.336 925.146,312.503 922.5,313C 917.567,317.604 911.9,320.938 905.5,323C 897.727,324.89 892.561,322.057 890,314.5C 888.091,301.621 889.757,289.288 895,277.5C 897.362,273.973 900.196,270.973 903.5,268.5 Z"/></g>
<g><path style="opacity:1" fill="#f9f9f9" d="M 667.5,274.5 C 671.315,273.829 674.149,275.162 676,278.5C 678.072,295.73 673.572,310.896 662.5,324C 657.538,327.967 653.705,327.133 651,321.5C 649.546,307.98 652.213,295.313 659,283.5C 661.362,279.973 664.196,276.973 667.5,274.5 Z"/></g>
<g><path style="opacity:1" fill="#939393" d="M 737.5,288.5 C 737.5,289.5 737.5,290.5 737.5,291.5C 738.833,291.5 740.167,291.5 741.5,291.5C 740.081,292.451 738.415,292.784 736.5,292.5C 736.232,290.901 736.566,289.568 737.5,288.5 Z"/></g>
<g><path style="opacity:1" fill="#d6d6d6" d="M 48.5,285.5 C 49.6327,287.055 50.2994,288.889 50.5,291C 46.0346,306.342 45.3679,321.842 48.5,337.5C 46.955,336.77 46.1216,335.437 46,333.5C 45.3333,323.5 45.3333,313.5 46,303.5C 46.8572,299.404 48.0238,295.404 49.5,291.5C 48.6518,289.591 48.3184,287.591 48.5,285.5 Z"/></g>
<g><path style="opacity:1" fill="#f5f5f5" d="M 849.5,301.5 C 851.402,304.337 852.069,307.671 851.5,311.5C 850.127,311.343 848.793,311.51 847.5,312C 842.344,316.414 836.677,320.081 830.5,323C 820.285,325.575 814.618,321.742 813.5,311.5C 826.646,311.883 838.646,308.55 849.5,301.5 Z"/></g>
<g><path style="opacity:1" fill="#f5f5f5" d="M 772.5,301.5 C 774.402,304.337 775.069,307.671 774.5,311.5C 772.692,311.491 771.025,311.991 769.5,313C 763.45,318.775 756.283,322.275 748,323.5C 741.123,323.125 737.29,319.458 736.5,312.5C 746.778,311.545 756.778,309.378 766.5,306C 768.747,304.723 770.747,303.223 772.5,301.5 Z"/></g>
<g><path style="opacity:1" fill="#e3e3e3" d="M 1018.5,311.5 C 1020.04,312.736 1021.04,314.402 1021.5,316.5C 1020.31,317.429 1018.98,317.762 1017.5,317.5C 1017.83,315.5 1018.17,313.5 1018.5,311.5 Z"/></g>
<g><path style="opacity:1" fill="#adadad" d="M 492.5,323.5 C 492.217,328.069 490.217,332.069 486.5,335.5C 487.975,331.217 489.975,327.217 492.5,323.5 Z"/></g>
<g><path style="opacity:1" fill="#cecece" d="M 48.5,338.5 C 50.9533,344.74 53.9533,350.74 57.5,356.5C 53.2254,353.33 50.3921,348.997 49,343.5C 48.5065,341.866 48.3398,340.199 48.5,338.5 Z"/></g>
<g><path style="opacity:1" fill="#b5b5b5" d="M 483.5,340.5 C 480.273,347.727 475.273,353.394 468.5,357.5C 473.901,352.105 478.901,346.438 483.5,340.5 Z"/></g>
<g><path style="opacity:1" fill="#c0c0c0" d="M 462.5,361.5 C 458.889,364.768 454.555,366.601 449.5,367C 444.98,367.814 440.646,367.647 436.5,366.5C 445.538,366.74 454.205,365.073 462.5,361.5 Z"/></g>
<g><path style="opacity:1" fill="#b2b2b2" d="M 409.5,365.5 C 404.028,367.48 398.361,369.146 392.5,370.5C 397.397,366.65 403.063,364.983 409.5,365.5 Z"/></g>
<g><path style="opacity:1" fill="#b6b6b6" d="M 314.5,423.5 C 303.036,425.152 291.369,426.152 279.5,426.5C 290.914,424.251 302.58,423.251 314.5,423.5 Z"/></g>
<g><path style="opacity:1" fill="#c8c8c8" d="M 278.5,426.5 C 273.572,428.606 268.572,430.94 263.5,433.5C 263.414,432.504 263.748,431.671 264.5,431C 268.892,428.591 273.558,427.091 278.5,426.5 Z"/></g>
<g><path style="opacity:1" fill="#a7a7a7" d="M 243.5,455.5 C 241.246,461.965 238.246,467.965 234.5,473.5C 236.465,466.903 239.465,460.903 243.5,455.5 Z"/></g>
<g><path style="opacity:1" fill="#a4a4a4" d="M 229.5,504.5 C 230.305,510.863 227.472,513.863 221,513.5C 219.293,513.492 217.793,513.158 216.5,512.5C 223.801,514.04 228.134,511.373 229.5,504.5 Z"/></g>
</svg>
