<?xml version="1.0" encoding="UTF-8"?>
<!DOCTYPE svg PUBLIC "-//W3C//DTD SVG 1.1//EN" "http://www.w3.org/Graphics/SVG/1.1/DTD/svg11.dtd">
<svg xmlns="http://www.w3.org/2000/svg" version="1.1" width="574px" height="565px" style="shape-rendering:geometricPrecision; text-rendering:geometricPrecision; image-rendering:optimizeQuality; fill-rule:evenodd; clip-rule:evenodd" xmlns:xlink="http://www.w3.org/1999/xlink">
<g><path style="opacity:0.999" fill="#fefefe" d="M 334.5,58.5 C 337.5,62.1667 340.833,65.5 344.5,68.5C 350.936,76.109 357.603,83.609 364.5,91C 367.833,91.6667 371.167,91.6667 374.5,91C 371.635,90.8171 368.969,90.3171 366.5,89.5C 369.167,89.5 371.833,89.5 374.5,89.5C 382.515,89.442 390.515,89.7754 398.5,90.5C 411.537,90.3195 424.203,89.3195 436.5,87.5C 444.347,87.48 452.18,87.8133 460,88.5C 462.929,88.4752 465.429,87.8086 467.5,86.5C 472.167,85.1667 476.833,85.1667 481.5,86.5C 480.5,88.8333 481.167,89.5 483.5,88.5C 484.9,93.1014 484.733,97.768 483,102.5C 482.141,132.672 480.974,162.672 479.5,192.5C 479.631,191.761 479.464,191.094 479,190.5C 475.427,199.007 477.427,205.674 485,210.5C 485.399,210.272 485.565,209.938 485.5,209.5C 487.404,209.738 488.738,210.738 489.5,212.5C 488.761,212.369 488.094,212.536 487.5,213C 512.5,236.667 537.5,260.333 562.5,284C 537.167,308 511.833,332 486.5,356C 487.056,356.383 487.389,356.883 487.5,357.5C 487.158,358.338 486.492,358.672 485.5,358.5C 485.103,357.475 484.437,357.308 483.5,358C 477.385,362.959 475.885,369.126 479,376.5C 479.383,375.944 479.883,375.611 480.5,375.5C 480.949,410.249 482.115,444.915 484,479.5C 483.617,480.056 483.117,480.389 482.5,480.5C 482.489,477.999 481.822,477.832 480.5,480C 481.056,480.383 481.389,480.883 481.5,481.5C 476.934,482.797 472.267,482.797 467.5,481.5C 465.429,480.191 462.929,479.525 460,479.5C 457.5,479.667 455,479.833 452.5,480C 457.351,480.174 462.018,480.674 466.5,481.5C 435.383,480.207 404.383,478.874 373.5,477.5C 371.283,476.362 368.283,476.195 364.5,477C 356.167,486 347.833,495 339.5,504C 340.056,504.383 340.389,504.883 340.5,505.5C 339.833,506.833 338.833,507.833 337.5,508.5C 337.631,507.761 337.464,507.094 337,506.5C 320.366,524.802 303.366,542.802 286,560.5C 259.467,532.968 233.3,505.135 207.5,477C 203.833,476.333 200.167,476.333 196.5,477C 197.056,477.383 197.389,477.883 197.5,478.5C 180.829,478.65 164.162,478.983 147.5,479.5C 143.354,478.353 139.02,478.186 134.5,479C 135.056,479.383 135.389,479.883 135.5,480.5C 126.014,481.494 116.348,481.827 106.5,481.5C 108.631,480.686 110.964,480.186 113.5,480C 110.167,479.333 106.833,479.333 103.5,480C 104.056,480.383 104.389,480.883 104.5,481.5C 100.354,482.647 96.0204,482.814 91.5,482C 90.5842,481.722 89.9175,481.222 89.5,480.5C 92.0009,480.489 92.1676,479.822 90,478.5C 89.6174,479.056 89.1174,479.389 88.5,479.5C 87.1667,473.833 87.1667,468.167 88.5,462.5C 89.1667,452.167 89.8333,441.833 90.5,431.5C 91.3199,419.333 91.9866,407 92.5,394.5C 92.1012,386.324 91.4346,378.324 90.5,370.5C 90.5,369.833 90.8333,369.5 91.5,369.5C 92.1174,369.611 92.6174,369.944 93,370.5C 93.6667,367.833 93.6667,365.167 93,362.5C 67.9961,339.662 43.1628,316.662 18.5,293.5C 15.7044,290.203 12.7044,287.036 9.5,284C 37.0315,257.467 64.8649,231.3 93,205.5C 93.1667,204.167 93.3333,202.833 93.5,201.5C 93.4146,199.667 92.7479,198.334 91.5,197.5C 90.506,187.681 90.1726,177.681 90.5,167.5C 90.6946,160.33 91.028,153.163 91.5,146C 91.4848,142.424 90.8182,139.258 89.5,136.5C 90.6934,120.837 90.6934,105.17 89.5,89.5C 91.4812,88.8946 91.8146,87.8946 90.5,86.5C 92.6413,85.8367 94.9746,85.5034 97.5,85.5C 130.998,86.6869 164.332,88.0202 197.5,89.5C 198.694,90.7773 200.36,91.4439 202.5,91.5C 204.167,91.3333 205.833,91.1667 207.5,91C 233.3,62.8649 259.467,35.0315 286,7.5C 302.399,24.3955 318.565,41.3955 334.5,58.5 Z M 291.5,93.5 C 292.585,95.5869 294.251,96.9202 296.5,97.5C 299.862,101.192 303.195,104.859 306.5,108.5C 307.419,111.089 309.086,113.089 311.5,114.5C 314.833,118.167 318.167,121.833 321.5,125.5C 322.167,126.833 323.167,127.833 324.5,128.5C 330.325,134.825 336.325,140.991 342.5,147C 368.003,146.839 393.336,146.005 418.5,144.5C 420.5,144.5 422.5,144.5 424.5,144.5C 424.5,151.167 424.5,157.833 424.5,164.5C 423.409,185.49 422.909,206.49 423,227.5C 423.278,228.416 423.778,229.082 424.5,229.5C 441.788,246.117 459.455,262.45 477.5,278.5C 480.04,279.854 481.54,281.854 482,284.5C 461.978,302.857 442.311,321.524 423,340.5C 422.909,360.844 423.409,381.177 424.5,401.5C 424.5,408.5 424.5,415.5 424.5,422.5C 417.833,422.5 411.167,422.5 404.5,422.5C 383.836,421.566 363.17,421.066 342.5,421C 323.345,440.655 304.345,460.489 285.5,480.5C 277.812,472.479 270.145,464.479 262.5,456.5C 261.5,453.5 259.5,451.5 256.5,450.5C 247.65,440.485 238.65,430.652 229.5,421C 212.331,420.838 195.331,421.338 178.5,422.5C 174.833,422.5 171.167,422.5 167.5,422.5C 160.5,422.5 153.5,422.5 146.5,422.5C 146.5,420.833 146.5,419.167 146.5,417.5C 147.849,397.348 148.516,377.014 148.5,356.5C 149.164,354.022 149.497,351.355 149.5,348.5C 149.579,345.045 149.079,341.712 148,338.5C 135.592,327.584 123.426,316.584 111.5,305.5C 104.187,298.521 96.8539,291.521 89.5,284.5C 96.5481,276.785 103.881,269.452 111.5,262.5C 113.027,262.573 114.027,261.906 114.5,260.5C 125.881,249.284 137.381,238.284 149,227.5C 148.855,206.834 148.355,186.167 147.5,165.5C 147.821,160.305 147.487,155.305 146.5,150.5C 146.5,148.5 146.5,146.5 146.5,144.5C 148.833,144.5 151.167,144.5 153.5,144.5C 176,145.674 198.666,146.674 221.5,147.5C 224.585,147.456 227.585,147.122 230.5,146.5C 233.471,143.192 236.471,139.859 239.5,136.5C 242.2,134.766 244.2,132.432 245.5,129.5C 247.473,126.861 249.806,124.527 252.5,122.5C 256.566,119.437 259.899,115.771 262.5,111.5C 269.634,104.197 276.634,96.6971 283.5,89C 284.416,88.6258 285.25,88.1258 286,87.5C 288.04,89.3702 289.873,91.3702 291.5,93.5 Z"/></g>
<g><path style="opacity:0.239" fill="#9cd2cb" d="M 334.5,56.5 C 334.5,57.1667 334.5,57.8333 334.5,58.5C 318.565,41.3955 302.399,24.3955 286,7.5C 259.467,35.0315 233.3,62.8649 207.5,91C 205.833,91.1667 204.167,91.3333 202.5,91.5C 200.36,91.4439 198.694,90.7773 197.5,89.5C 200.518,89.6646 203.518,89.498 206.5,89C 232.313,60.6869 258.646,32.8536 285.5,5.5C 290.78,9.2775 295.614,13.6108 300,18.5C 311.337,31.3363 322.837,44.0029 334.5,56.5 Z"/></g>
<g><path style="opacity:0.176" fill="#cde9e4" d="M 334.5,56.5 C 338.898,59.8947 342.564,63.8947 345.5,68.5C 345.167,68.5 344.833,68.5 344.5,68.5C 340.833,65.5 337.5,62.1667 334.5,58.5C 334.5,57.8333 334.5,57.1667 334.5,56.5 Z"/></g>
<g><path style="opacity:0.141" fill="#a3cfc9" d="M 344.5,68.5 C 344.833,68.5 345.167,68.5 345.5,68.5C 352.936,75.2688 359.936,82.2688 366.5,89.5C 368.969,90.3171 371.635,90.8171 374.5,91C 371.167,91.6667 367.833,91.6667 364.5,91C 357.603,83.609 350.936,76.109 344.5,68.5 Z"/></g>
<g><path style="opacity:0.157" fill="#9bd4cb" d="M 291.5,93.5 C 289.873,91.3702 288.04,89.3702 286,87.5C 285.25,88.1258 284.416,88.6258 283.5,89C 276.634,96.6971 269.634,104.197 262.5,111.5C 261.833,111.5 261.167,111.5 260.5,111.5C 268.528,103.449 276.195,94.9489 283.5,86C 287.165,85.613 289.998,87.113 292,90.5C 292.74,91.7494 292.573,92.7494 291.5,93.5 Z"/></g>
<g><path style="opacity:0.224" fill="#a4cac5" d="M 436.5,87.5 C 446.653,86.5058 456.986,86.1724 467.5,86.5C 465.429,87.8086 462.929,88.4752 460,88.5C 452.18,87.8133 444.347,87.48 436.5,87.5 Z"/></g>
<g><path style="opacity:0.267" fill="#4db0a4" d="M 481.5,86.5 C 482.5,86.8333 483.167,87.5 483.5,88.5C 481.167,89.5 480.5,88.8333 481.5,86.5 Z"/></g>
<g><path style="opacity:0.592" fill="#42baa8" d="M 90.5,86.5 C 91.8146,87.8946 91.4812,88.8946 89.5,89.5C 89.5,88.8333 89.1667,88.5 88.5,88.5C 88.5,87.1667 89.1667,86.5 90.5,86.5 Z"/></g>
<g><path style="opacity:0.216" fill="#a9bcb9" d="M 436.5,87.5 C 424.203,89.3195 411.537,90.3195 398.5,90.5C 390.515,89.7754 382.515,89.442 374.5,89.5C 394.987,88.1725 415.653,87.5058 436.5,87.5 Z"/></g>
<g><path style="opacity:0.114" fill="#99ddd4" d="M 306.5,108.5 C 303.195,104.859 299.862,101.192 296.5,97.5C 296.435,97.0618 296.601,96.7284 297,96.5C 300.333,99.8333 303.667,103.167 307,106.5C 307.692,107.437 307.525,108.103 306.5,108.5 Z"/></g>
<g><path style="opacity:0.114" fill="#9bc1bc" d="M 321.5,125.5 C 318.167,121.833 314.833,118.167 311.5,114.5C 312.117,114.389 312.617,114.056 313,113.5C 316.869,117.034 320.369,120.867 323.5,125C 322.906,125.464 322.239,125.631 321.5,125.5 Z"/></g>
<g><path style="opacity:0.082" fill="#cbdedd" d="M 260.5,111.5 C 261.167,111.5 261.833,111.5 262.5,111.5C 259.899,115.771 256.566,119.437 252.5,122.5C 252.5,121.833 252.5,121.167 252.5,120.5C 255.167,117.5 257.833,114.5 260.5,111.5 Z"/></g>
<g><path style="opacity:0.243" fill="#b6c8c6" d="M 88.5,88.5 C 89.1667,88.5 89.5,88.8333 89.5,89.5C 90.6934,105.17 90.6934,120.837 89.5,136.5C 88.653,123.501 87.9864,110.335 87.5,97C 87.5022,93.9792 87.8356,91.1459 88.5,88.5 Z"/></g>
<g><path style="opacity:0.094" fill="#95dacf" d="M 252.5,120.5 C 252.5,121.167 252.5,121.833 252.5,122.5C 249.806,124.527 247.473,126.861 245.5,129.5C 244.475,129.103 244.308,128.437 245,127.5C 247.37,124.961 249.87,122.628 252.5,120.5 Z"/></g>
<g><path style="opacity:0.129" fill="#b5d7d2" d="M 388.5,144.5 C 398.5,144.5 408.5,144.5 418.5,144.5C 393.336,146.005 368.003,146.839 342.5,147C 336.325,140.991 330.325,134.825 324.5,128.5C 324.369,127.761 324.536,127.094 325,126.5C 331.199,132.364 337.032,138.531 342.5,145C 357.822,144.823 373.155,144.657 388.5,144.5 Z"/></g>
<g><path style="opacity:0.086" fill="#97b9b5" d="M 239.5,136.5 C 236.471,139.859 233.471,143.192 230.5,146.5C 230.5,145.833 230.5,145.167 230.5,144.5C 232.412,141.081 234.912,138.081 238,135.5C 238.383,136.056 238.883,136.389 239.5,136.5 Z"/></g>
<g><path style="opacity:0.322" fill="#80c6bf" d="M 153.5,143.5 C 153.5,143.833 153.5,144.167 153.5,144.5C 151.167,144.5 148.833,144.5 146.5,144.5C 146.5,146.5 146.5,148.5 146.5,150.5C 146.167,150.5 145.833,150.5 145.5,150.5C 144.612,147.946 144.279,145.279 144.5,142.5C 147.609,142.264 150.609,142.597 153.5,143.5 Z"/></g>
<g><path style="opacity:0.329" fill="#afddd7" d="M 426.5,161.5 C 425.833,162.5 425.167,163.5 424.5,164.5C 424.5,157.833 424.5,151.167 424.5,144.5C 422.5,144.5 420.5,144.5 418.5,144.5C 408.5,144.5 398.5,144.5 388.5,144.5C 400.679,143.515 413.012,143.015 425.5,143C 426.476,149.076 426.81,155.242 426.5,161.5 Z"/></g>
<g><path style="opacity:0.349" fill="#b3d5d1" d="M 153.5,143.5 C 176.013,143.712 198.513,144.378 221,145.5C 224.251,145.458 227.417,145.125 230.5,144.5C 230.5,145.167 230.5,145.833 230.5,146.5C 227.585,147.122 224.585,147.456 221.5,147.5C 198.666,146.674 176,145.674 153.5,144.5C 153.5,144.167 153.5,143.833 153.5,143.5 Z"/></g>
<g><path style="opacity:0.235" fill="#b9d1ce" d="M 89.5,136.5 C 90.8182,139.258 91.4848,142.424 91.5,146C 91.028,153.163 90.6946,160.33 90.5,167.5C 89.5058,157.347 89.1724,147.014 89.5,136.5 Z"/></g>
<g><path style="opacity:0.306" fill="#d0e4e2" d="M 145.5,150.5 C 145.833,150.5 146.167,150.5 146.5,150.5C 147.487,155.305 147.821,160.305 147.5,165.5C 146.833,165.5 146.167,165.5 145.5,165.5C 145.5,160.5 145.5,155.5 145.5,150.5 Z"/></g>
<g><path style="opacity:0.635" fill="#49bbac" d="M 399.5,165.5 C 399.573,167.027 398.906,168.027 397.5,168.5C 397.027,167.094 396.027,166.427 394.5,166.5C 394.5,166.167 394.5,165.833 394.5,165.5C 396.286,163.078 397.952,163.078 399.5,165.5 Z"/></g>
<g><path style="opacity:1" fill="#fefefe" d="M 394.5,166.5 C 396.027,166.427 397.027,167.094 397.5,168.5C 376.846,191.158 356.513,214.158 336.5,237.5C 336.624,238.107 336.957,238.44 337.5,238.5C 337.167,239.5 336.5,240.167 335.5,240.5C 335.565,240.062 335.399,239.728 335,239.5C 327.862,247.307 320.695,255.141 313.5,263C 314.094,263.464 314.761,263.631 315.5,263.5C 314.581,266.089 312.914,268.089 310.5,269.5C 310.631,268.761 310.464,268.094 310,267.5C 308.667,268.833 307.333,270.167 306,271.5C 305.308,272.437 305.475,273.103 306.5,273.5C 305.833,274.833 304.833,275.833 303.5,276.5C 303.565,276.062 303.399,275.728 303,275.5C 299.985,277.516 299.818,279.683 302.5,282C 317.346,292.03 332.012,302.196 346.5,312.5C 346.586,313.496 346.252,314.329 345.5,315C 315.988,329.923 286.321,344.589 256.5,359C 253.664,360.391 251.331,362.224 249.5,364.5C 249.5,365.167 249.167,365.5 248.5,365.5C 248.631,364.761 248.464,364.094 248,363.5C 232.911,371.294 217.744,378.961 202.5,386.5C 201.702,386.957 201.369,387.624 201.5,388.5C 201.167,388.5 200.833,388.5 200.5,388.5C 200.103,387.475 199.437,387.308 198.5,388C 195.664,389.391 193.331,391.224 191.5,393.5C 190.71,394.401 189.71,395.068 188.5,395.5C 188.631,394.761 188.464,394.094 188,393.5C 185.882,394.283 184.382,395.616 183.5,397.5C 181.031,398.067 178.698,398.067 176.5,397.5C 180.83,393.002 184.997,388.335 189,383.5C 189.692,382.563 189.525,381.897 188.5,381.5C 188.328,380.508 188.662,379.842 189.5,379.5C 190.117,379.611 190.617,379.944 191,380.5C 197.873,373.295 204.373,365.795 210.5,358C 209.906,357.536 209.239,357.369 208.5,357.5C 208.973,356.094 209.973,355.427 211.5,355.5C 211.435,355.938 211.601,356.272 212,356.5C 223.86,343.261 235.36,329.761 246.5,316C 231.403,305.274 216.069,294.774 200.5,284.5C 199.294,283.12 199.627,281.953 201.5,281C 241.331,257.919 280.998,234.585 320.5,211C 321.252,210.329 321.586,209.496 321.5,208.5C 321.5,207.833 321.833,207.5 322.5,207.5C 322.369,208.239 322.536,208.906 323,209.5C 346.778,195.03 370.611,180.696 394.5,166.5 Z"/></g>
<g><path style="opacity:0.322" fill="#b2d6d1" d="M 145.5,165.5 C 146.167,165.5 146.833,165.5 147.5,165.5C 148.355,186.167 148.855,206.834 149,227.5C 137.381,238.284 125.881,249.284 114.5,260.5C 114.389,259.883 114.056,259.383 113.5,259C 124.667,248.5 135.833,238 147,227.5C 146.878,206.833 146.378,186.166 145.5,165.5 Z"/></g>
<g><path style="opacity:0.282" fill="#96d3cb" d="M 399.5,165.5 C 400.573,166.251 400.74,167.251 400,168.5C 381.312,188.524 363.312,209.191 346,230.5C 342.641,232.695 339.807,235.362 337.5,238.5C 336.957,238.44 336.624,238.107 336.5,237.5C 356.513,214.158 376.846,191.158 397.5,168.5C 398.906,168.027 399.573,167.027 399.5,165.5 Z"/></g>
<g><path style="opacity:0.153" fill="#84d7cc" d="M 479.5,192.5 C 479.334,196.514 479.501,200.514 480,204.5C 481.73,206.402 483.563,208.069 485.5,209.5C 485.565,209.938 485.399,210.272 485,210.5C 477.427,205.674 475.427,199.007 479,190.5C 479.464,191.094 479.631,191.761 479.5,192.5 Z"/></g>
<g><path style="opacity:0.224" fill="#8bc8bf" d="M 394.5,165.5 C 394.5,165.833 394.5,166.167 394.5,166.5C 370.611,180.696 346.778,195.03 323,209.5C 322.536,208.906 322.369,208.239 322.5,207.5C 346.495,193.502 370.495,179.502 394.5,165.5 Z"/></g>
<g><path style="opacity:0.427" fill="#a4d9d2" d="M 426.5,161.5 C 425.282,183.895 424.948,206.229 425.5,228.5C 424.833,228.5 424.5,228.833 424.5,229.5C 423.778,229.082 423.278,228.416 423,227.5C 422.909,206.49 423.409,185.49 424.5,164.5C 425.167,163.5 425.833,162.5 426.5,161.5 Z"/></g>
<g><path style="opacity:0.239" fill="#95d1c9" d="M 91.5,197.5 C 92.7479,198.334 93.4146,199.667 93.5,201.5C 93.3333,202.833 93.1667,204.167 93,205.5C 64.8649,231.3 37.0315,257.467 9.5,284C 12.7044,287.036 15.7044,290.203 18.5,293.5C 17.8333,293.5 17.1667,293.5 16.5,293.5C 12.2196,290.747 9.38629,287.081 8,282.5C 35.3649,256.134 63.0316,230.134 91,204.5C 91.4966,202.19 91.6633,199.857 91.5,197.5 Z"/></g>
<g><path style="opacity:0.518" fill="#8ccdc4" d="M 321.5,208.5 C 321.586,209.496 321.252,210.329 320.5,211C 280.998,234.585 241.331,257.919 201.5,281C 199.627,281.953 199.294,283.12 200.5,284.5C 199.833,284.5 199.167,284.5 198.5,284.5C 197.201,282.847 197.534,281.347 199.5,280C 240.371,256.402 281.038,232.569 321.5,208.5 Z"/></g>
<g><path style="opacity:0.129" fill="#b5dcd6" d="M 425.5,228.5 C 443.797,244.463 461.464,261.129 478.5,278.5C 478.167,278.5 477.833,278.5 477.5,278.5C 459.455,262.45 441.788,246.117 424.5,229.5C 424.5,228.833 424.833,228.5 425.5,228.5 Z"/></g>
<g><path style="opacity:0.02" fill="#a5cec8" d="M 489.5,212.5 C 514.13,235.295 538.63,258.295 563,281.5C 563.667,283.167 563.667,284.833 563,286.5C 537.938,310.399 512.771,334.066 487.5,357.5C 487.389,356.883 487.056,356.383 486.5,356C 511.833,332 537.167,308 562.5,284C 537.5,260.333 512.5,236.667 487.5,213C 488.094,212.536 488.761,212.369 489.5,212.5 Z"/></g>
<g><path style="opacity:0.086" fill="#a3c6c1" d="M 335.5,240.5 C 329.551,248.783 322.884,256.45 315.5,263.5C 314.761,263.631 314.094,263.464 313.5,263C 320.695,255.141 327.862,247.307 335,239.5C 335.399,239.728 335.565,240.062 335.5,240.5 Z"/></g>
<g><path style="opacity:0.141" fill="#85d7cc" d="M 310.5,269.5 C 308.833,270.5 307.5,271.833 306.5,273.5C 305.475,273.103 305.308,272.437 306,271.5C 307.333,270.167 308.667,268.833 310,267.5C 310.464,268.094 310.631,268.761 310.5,269.5 Z"/></g>
<g><path style="opacity:0.314" fill="#a3dad3" d="M 111.5,262.5 C 103.881,269.452 96.5481,276.785 89.5,284.5C 96.8539,291.521 104.187,298.521 111.5,305.5C 111.5,305.833 111.5,306.167 111.5,306.5C 105.725,301.9 100.059,297.066 94.5,292C 91.7807,289.618 89.4474,286.951 87.5,284C 90.0069,279.232 93.6736,275.566 98.5,273C 102.333,268.5 106.5,264.333 111,260.5C 111.464,261.094 111.631,261.761 111.5,262.5 Z"/></g>
<g><path style="opacity:0.275" fill="#97cfc8" d="M 303.5,276.5 C 303.586,277.496 303.252,278.329 302.5,279C 318.218,289.988 333.551,301.154 348.5,312.5C 347.833,312.5 347.167,312.5 346.5,312.5C 332.012,302.196 317.346,292.03 302.5,282C 299.818,279.683 299.985,277.516 303,275.5C 303.399,275.728 303.565,276.062 303.5,276.5 Z"/></g>
<g><path style="opacity:0.043" fill="#a0cfc9" d="M 198.5,284.5 C 199.167,284.5 199.833,284.5 200.5,284.5C 216.069,294.774 231.403,305.274 246.5,316C 235.36,329.761 223.86,343.261 212,356.5C 211.601,356.272 211.435,355.938 211.5,355.5C 222.289,342.206 233.289,329.04 244.5,316C 228.927,305.724 213.594,295.224 198.5,284.5 Z"/></g>
<g><path style="opacity:0.212" fill="#9fccc6" d="M 16.5,293.5 C 17.1667,293.5 17.8333,293.5 18.5,293.5C 43.1628,316.662 67.9961,339.662 93,362.5C 93.6667,365.167 93.6667,367.833 93,370.5C 92.6174,369.944 92.1174,369.611 91.5,369.5C 91.6621,367.473 91.4955,365.473 91,363.5C 65.6674,340.666 40.8341,317.333 16.5,293.5 Z"/></g>
<g><path style="opacity:0.325" fill="#bee2dd" d="M 111.5,305.5 C 123.426,316.584 135.592,327.584 148,338.5C 149.079,341.712 149.579,345.045 149.5,348.5C 149.497,351.355 149.164,354.022 148.5,356.5C 148.167,356.5 147.833,356.5 147.5,356.5C 147.666,351.156 147.499,345.823 147,340.5C 134.968,329.3 123.135,317.966 111.5,306.5C 111.5,306.167 111.5,305.833 111.5,305.5 Z"/></g>
<g><path style="opacity:0.184" fill="#80c0b8" d="M 346.5,312.5 C 347.167,312.5 347.833,312.5 348.5,312.5C 348.67,313.822 348.337,314.989 347.5,316C 314.935,332.449 282.268,348.616 249.5,364.5C 251.331,362.224 253.664,360.391 256.5,359C 286.321,344.589 315.988,329.923 345.5,315C 346.252,314.329 346.586,313.496 346.5,312.5 Z"/></g>
<g><path style="opacity:0.137" fill="#86d6cc" d="M 485.5,358.5 C 483.645,360.033 481.812,361.7 480,363.5C 479.238,367.587 479.404,371.587 480.5,375.5C 479.883,375.611 479.383,375.944 479,376.5C 475.885,369.126 477.385,362.959 483.5,358C 484.437,357.308 485.103,357.475 485.5,358.5 Z"/></g>
<g><path style="opacity:0.114" fill="#a1c8c2" d="M 208.5,357.5 C 209.239,357.369 209.906,357.536 210.5,358C 204.373,365.795 197.873,373.295 191,380.5C 190.617,379.944 190.117,379.611 189.5,379.5C 195.833,372.167 202.167,364.833 208.5,357.5 Z"/></g>
<g><path style="opacity:0.165" fill="#8dc0b9" d="M 248.5,365.5 C 232.92,373.359 217.253,381.026 201.5,388.5C 201.369,387.624 201.702,386.957 202.5,386.5C 217.744,378.961 232.911,371.294 248,363.5C 248.464,364.094 248.631,364.761 248.5,365.5 Z"/></g>
<g><path style="opacity:0.196" fill="#a7d9d2" d="M 200.5,388.5 C 197.76,390.56 194.76,392.226 191.5,393.5C 193.331,391.224 195.664,389.391 198.5,388C 199.437,387.308 200.103,387.475 200.5,388.5 Z"/></g>
<g><path style="opacity:0.094" fill="#b3dfda" d="M 188.5,381.5 C 189.525,381.897 189.692,382.563 189,383.5C 184.997,388.335 180.83,393.002 176.5,397.5C 175.833,397.167 175.167,396.833 174.5,396.5C 179.195,391.474 183.861,386.474 188.5,381.5 Z"/></g>
<g><path style="opacity:0.012" fill="#94b6b4" d="M 188.5,395.5 C 186.95,396.441 185.284,397.107 183.5,397.5C 184.382,395.616 185.882,394.283 188,393.5C 188.464,394.094 188.631,394.761 188.5,395.5 Z"/></g>
<g><path style="opacity:0.706" fill="#72afa7" d="M 174.5,396.5 C 175.167,396.833 175.833,397.167 176.5,397.5C 178.698,398.067 181.031,398.067 183.5,397.5C 181.103,400.12 178.269,400.787 175,399.5C 174.517,398.552 174.351,397.552 174.5,396.5 Z"/></g>
<g><path style="opacity:0.043" fill="#bacdcb" d="M 147.5,356.5 C 147.833,356.5 148.167,356.5 148.5,356.5C 148.516,377.014 147.849,397.348 146.5,417.5C 146.5,407.5 146.5,397.5 146.5,387.5C 146.172,376.986 146.506,366.653 147.5,356.5 Z"/></g>
<g><path style="opacity:0.306" fill="#bee1dd" d="M 146.5,387.5 C 146.5,397.5 146.5,407.5 146.5,417.5C 146.5,419.167 146.5,420.833 146.5,422.5C 153.5,422.5 160.5,422.5 167.5,422.5C 160.352,423.492 153.019,423.825 145.5,423.5C 145.5,421.5 145.5,419.5 145.5,417.5C 145.173,407.319 145.506,397.319 146.5,387.5 Z"/></g>
<g><path style="opacity:0.235" fill="#bcd8d5" d="M 90.5,370.5 C 91.4346,378.324 92.1012,386.324 92.5,394.5C 91.9866,407 91.3199,419.333 90.5,431.5C 90.5,421.5 90.5,411.5 90.5,401.5C 90.5,391.167 90.5,380.833 90.5,370.5 Z"/></g>
<g><path style="opacity:0.404" fill="#b8ddd8" d="M 256.5,450.5 C 256.565,450.938 256.399,451.272 256,451.5C 247.167,442 238.333,432.5 229.5,423C 223.509,422.501 217.509,422.334 211.5,422.5C 200.5,422.5 189.5,422.5 178.5,422.5C 195.331,421.338 212.331,420.838 229.5,421C 238.65,430.652 247.65,440.485 256.5,450.5 Z"/></g>
<g><path style="opacity:0.404" fill="#a6d5cf" d="M 477.5,278.5 C 477.833,278.5 478.167,278.5 478.5,278.5C 482.104,279.588 483.937,281.921 484,285.5C 464.333,303.833 444.667,322.167 425,340.5C 425.36,368.495 425.86,396.495 426.5,424.5C 398.491,423.969 370.491,423.469 342.5,423C 323.964,443.201 305.13,463.034 286,482.5C 278.066,474.566 270.066,466.566 262,458.5C 261.308,457.563 261.475,456.897 262.5,456.5C 270.145,464.479 277.812,472.479 285.5,480.5C 304.345,460.489 323.345,440.655 342.5,421C 363.17,421.066 383.836,421.566 404.5,422.5C 411.313,423.491 418.313,423.825 425.5,423.5C 425.825,415.981 425.492,408.648 424.5,401.5C 423.409,381.177 422.909,360.844 423,340.5C 442.311,321.524 461.978,302.857 482,284.5C 481.54,281.854 480.04,279.854 477.5,278.5 Z"/></g>
<g><path style="opacity:0.4" fill="#90d9d0" d="M 145.5,417.5 C 145.5,419.5 145.5,421.5 145.5,423.5C 153.019,423.825 160.352,423.492 167.5,422.5C 171.167,422.5 174.833,422.5 178.5,422.5C 189.5,422.5 200.5,422.5 211.5,422.5C 189.346,423.848 167.013,424.514 144.5,424.5C 144.198,421.941 144.532,419.607 145.5,417.5 Z"/></g>
<g><path style="opacity:0.079" fill="#d6d8d8" d="M 424.5,401.5 C 425.492,408.648 425.825,415.981 425.5,423.5C 418.313,423.825 411.313,423.491 404.5,422.5C 411.167,422.5 417.833,422.5 424.5,422.5C 424.5,415.5 424.5,408.5 424.5,401.5 Z"/></g>
<g><path style="opacity:0.02" fill="#9e9f9f" d="M 90.5,401.5 C 90.5,411.5 90.5,421.5 90.5,431.5C 89.8333,441.833 89.1667,452.167 88.5,462.5C 88.4429,441.984 89.1096,421.651 90.5,401.5 Z"/></g>
<g><path style="opacity:0.176" fill="#a8e0d9" d="M 147.5,479.5 C 143.434,479.307 139.434,479.64 135.5,480.5C 135.389,479.883 135.056,479.383 134.5,479C 139.02,478.186 143.354,478.353 147.5,479.5 Z"/></g>
<g><path style="opacity:0.31" fill="#2cb4a5" d="M 89.5,480.5 C 88.8333,480.5 88.5,480.167 88.5,479.5C 89.1174,479.389 89.6174,479.056 90,478.5C 92.1676,479.822 92.0009,480.489 89.5,480.5 Z"/></g>
<g><path style="opacity:0.188" fill="#9bdad2" d="M 106.5,481.5 C 105.833,481.5 105.167,481.5 104.5,481.5C 104.389,480.883 104.056,480.383 103.5,480C 106.833,479.333 110.167,479.333 113.5,480C 110.964,480.186 108.631,480.686 106.5,481.5 Z"/></g>
<g><path style="opacity:0.188" fill="#b0e4de" d="M 467.5,481.5 C 467.167,481.5 466.833,481.5 466.5,481.5C 462.018,480.674 457.351,480.174 452.5,480C 455,479.833 457.5,479.667 460,479.5C 462.929,479.525 465.429,480.191 467.5,481.5 Z"/></g>
<g><path style="opacity:0.247" fill="#36b9aa" d="M 482.5,480.5 C 482.5,481.167 482.167,481.5 481.5,481.5C 481.389,480.883 481.056,480.383 480.5,480C 481.822,477.832 482.489,477.999 482.5,480.5 Z"/></g>
<g><path style="opacity:0.125" fill="#a5d0ca" d="M 373.5,477.5 C 370.813,477.336 368.146,477.503 365.5,478C 357.67,487.661 349.337,496.828 340.5,505.5C 340.389,504.883 340.056,504.383 339.5,504C 347.833,495 356.167,486 364.5,477C 368.283,476.195 371.283,476.362 373.5,477.5 Z"/></g>
<g><path style="opacity:0.188" fill="#9fcec7" d="M 337.5,508.5 C 321.767,526.405 305.433,543.905 288.5,561C 286.833,561.667 285.167,561.667 283.5,561C 257.134,533.635 231.134,505.968 205.5,478C 202.739,477.278 200.073,477.445 197.5,478.5C 197.389,477.883 197.056,477.383 196.5,477C 200.167,476.333 203.833,476.333 207.5,477C 233.3,505.135 259.467,532.968 286,560.5C 303.366,542.802 320.366,524.802 337,506.5C 337.464,507.094 337.631,507.761 337.5,508.5 Z"/></g>
</svg>
