<?xml version="1.0" encoding="UTF-8"?>
<!DOCTYPE svg PUBLIC "-//W3C//DTD SVG 1.1//EN" "http://www.w3.org/Graphics/SVG/1.1/DTD/svg11.dtd">
<svg xmlns="http://www.w3.org/2000/svg" version="1.1" width="664px" height="583px" style="shape-rendering:geometricPrecision; text-rendering:geometricPrecision; image-rendering:optimizeQuality; fill-rule:evenodd; clip-rule:evenodd" xmlns:xlink="http://www.w3.org/1999/xlink">
<g><path style="opacity:0.173" fill="#9c9c9c" d="M 276.5,20.5 C 284.323,19.3439 292.323,19.1772 300.5,20C 303.457,20.2794 306.123,21.1127 308.5,22.5C 307.167,22.5 305.833,22.5 304.5,22.5C 295.298,20.7721 285.965,20.1054 276.5,20.5 Z"/></g>
<g><path style="opacity:0.994" fill="#020202" d="M 275.5,20.5 C 275.833,20.5 276.167,20.5 276.5,20.5C 285.965,20.1054 295.298,20.7721 304.5,22.5C 309.429,24.202 314.429,26.0353 319.5,28C 324.726,31.4031 330.06,34.5697 335.5,37.5C 344.144,33.2931 352.811,29.2931 361.5,25.5C 396.04,21.5665 424.04,33.2331 445.5,60.5C 481.02,51.9476 509.353,62.4476 530.5,92C 543.221,94.295 555.221,98.4617 566.5,104.5C 578.851,113.019 589.017,123.686 597,136.5C 601.175,144.511 605.008,152.511 608.5,160.5C 609.301,162.042 609.634,163.708 609.5,165.5C 609.238,166.978 609.571,168.311 610.5,169.5C 615.112,172.608 619.278,176.275 623,180.5C 627.188,186.234 631.354,191.901 635.5,197.5C 635.624,201.748 637.29,205.082 640.5,207.5C 652.11,241.041 652.443,274.708 641.5,308.5C 641.624,309.107 641.957,309.44 642.5,309.5C 642.5,310.167 642.5,310.833 642.5,311.5C 641.883,311.389 641.383,311.056 641,310.5C 637.956,314.982 635.289,319.648 633,324.5C 632.51,325.793 632.343,327.127 632.5,328.5C 631.504,328.414 630.671,328.748 630,329.5C 622.932,342.569 613.098,353.069 600.5,361C 588.688,367.57 576.022,370.403 562.5,369.5C 550.91,367.808 539.243,367.142 527.5,367.5C 518.89,367.755 510.556,369.422 502.5,372.5C 501.702,372.957 501.369,373.624 501.5,374.5C 497.234,374.564 493.401,375.897 490,378.5C 487.286,398.901 478.452,415.901 463.5,429.5C 446.549,440.317 427.882,446.483 407.5,448C 400.872,449.052 394.206,449.552 387.5,449.5C 370.704,449.642 354.037,451.142 337.5,454C 331.868,455.211 326.534,457.211 321.5,460C 320.663,461.011 320.33,462.178 320.5,463.5C 320.167,463.5 319.833,463.5 319.5,463.5C 319.103,462.475 318.437,462.308 317.5,463C 307.484,470.509 299.484,479.675 293.5,490.5C 287.524,499.04 282.857,508.373 279.5,518.5C 273.737,534.317 271.07,550.65 271.5,567.5C 267.984,573.585 262.651,575.918 255.5,574.5C 255.167,574.5 254.833,574.5 254.5,574.5C 253.25,572.068 251.75,569.734 250,567.5C 249.391,560.811 249.557,554.144 250.5,547.5C 251.196,544.446 252.696,541.78 255,539.5C 260.87,509.764 273.204,483.097 292,459.5C 309.925,442.268 331.091,433.602 355.5,433.5C 373.457,431.858 391.457,430.358 409.5,429C 446.701,425.13 468.368,404.797 474.5,368C 486.58,364.759 497.58,359.426 507.5,352C 518.658,349.548 529.825,348.048 541,347.5C 550.628,349.114 560.295,350.447 570,351.5C 575.01,351.677 579.844,350.844 584.5,349C 627.425,316.55 640.925,274.383 625,222.5C 622.883,216.264 620.216,210.264 617,204.5C 612.028,198.189 607.028,191.855 602,185.5C 599.297,182.462 596.297,179.795 593,177.5C 588.688,155.709 577.854,137.876 560.5,124C 547.673,115.779 533.673,110.612 518.5,108.5C 499.664,78.9542 473.664,69.9542 440.5,81.5C 435.331,80.5012 431.831,77.5012 430,72.5C 419.322,58.9176 405.822,49.4176 389.5,44C 382.539,42.5426 375.539,42.5426 368.5,44C 357.998,47.2507 347.998,52.2507 338.5,59C 334.548,59.9115 330.881,59.2448 327.5,57C 309.743,39.0626 289.076,34.7292 265.5,44C 258.978,49.1885 253.145,55.0218 248,61.5C 221.872,51.4696 198.039,55.3029 176.5,73C 171.31,78.8539 166.143,84.6872 161,90.5C 109.795,92.7049 82.7952,119.372 80,170.5C 62.3297,175.172 47.9963,184.839 37,199.5C 32.0776,206.337 29.9109,214.004 30.5,222.5C 30.5861,227.212 31.0861,231.879 32,236.5C 34.8951,245.285 38.0617,253.952 41.5,262.5C 34.615,280.633 32.4483,299.299 35,318.5C 39.2465,337.091 49.4131,351.591 65.5,362C 67.7463,363.039 69.913,364.206 72,365.5C 72.3333,365.167 72.6667,364.833 73,364.5C 77.9735,368.735 83.4735,372.069 89.5,374.5C 90.1284,380.601 90.7951,386.601 91.5,392.5C 96.9029,446.403 126.57,476.236 180.5,482C 190.833,482.333 201.167,482.667 211.5,483C 213.27,484.967 214.27,487.3 214.5,490C 212.377,505.482 210.377,520.982 208.5,536.5C 208.441,539.109 209.108,541.443 210.5,543.5C 211.473,550.611 209.807,556.944 205.5,562.5C 197.997,566.365 192.164,564.698 188,557.5C 189.888,538.874 191.722,520.207 193.5,501.5C 174.285,501.042 155.618,497.709 137.5,491.5C 137.047,490.542 136.381,489.708 135.5,489C 132.647,487.57 129.647,486.737 126.5,486.5C 125.7,484.259 124.034,483.259 121.5,483.5C 107.744,474.075 96.7437,462.075 88.5,447.5C 88.0431,446.702 87.3764,446.369 86.5,446.5C 84.659,444.151 83.3257,441.485 82.5,438.5C 82.8799,436.302 82.2132,434.635 80.5,433.5C 76.1598,417.796 73.4931,401.796 72.5,385.5C 66.9579,384.063 61.6246,382.063 56.5,379.5C 55.5084,379.672 54.8417,379.338 54.5,378.5C 37.1982,366.026 25.0315,349.693 18,329.5C 17.0018,323.513 16.1685,317.513 15.5,311.5C 15.5,304.5 15.5,297.5 15.5,290.5C 16.5881,281.139 18.5881,271.973 21.5,263C 10.6171,240.774 9.1171,217.941 17,194.5C 19,191.167 21,187.833 23,184.5C 28.3122,178.856 33.9789,173.523 40,168.5C 40.4643,167.906 40.631,167.239 40.5,166.5C 47.7259,162.734 55.3926,159.734 63.5,157.5C 64.31,130.379 75.31,108.546 96.5,92C 105.974,86.2661 115.64,81.0994 125.5,76.5C 125.5,75.8333 125.833,75.5 126.5,75.5C 126.735,76.0967 127.235,76.4301 128,76.5C 135.092,75.1079 142.259,74.2746 149.5,74C 154.733,68.2749 159.733,62.4415 164.5,56.5C 164.5,55.8333 164.833,55.5 165.5,55.5C 167.685,56.0869 169.352,55.0869 170.5,52.5C 172.848,52.4077 174.514,51.4077 175.5,49.5C 195.795,38.4096 217.461,34.5762 240.5,38C 245.018,35.2958 249.018,32.1291 252.5,28.5C 252.833,28.5 253.167,28.5 253.5,28.5C 261.137,26.4013 268.47,23.7347 275.5,20.5 Z"/></g>
<g><path style="opacity:0.333" fill="#6c6c6c" d="M 275.5,20.5 C 268.47,23.7347 261.137,26.4013 253.5,28.5C 260.075,24.0828 267.408,21.4162 275.5,20.5 Z"/></g>
<g><path style="opacity:0.341" fill="#7c7c7c" d="M 304.5,22.5 C 305.833,22.5 307.167,22.5 308.5,22.5C 318.139,25.4858 327.139,29.8191 335.5,35.5C 343.691,30.7722 352.358,27.4389 361.5,25.5C 352.811,29.2931 344.144,33.2931 335.5,37.5C 330.06,34.5697 324.726,31.4031 319.5,28C 314.429,26.0353 309.429,24.202 304.5,22.5 Z"/></g>
<g><path style="opacity:0.325" fill="#9b9b9b" d="M 252.5,28.5 C 249.018,32.1291 245.018,35.2958 240.5,38C 217.461,34.5762 195.795,38.4096 175.5,49.5C 177.071,46.7687 179.405,44.9354 182.5,44C 200.731,35.9429 219.731,33.2763 239.5,36C 243.48,32.8454 247.814,30.3454 252.5,28.5 Z"/></g>
<g><path style="opacity:1" fill="#fce2ea" d="M 250.5,547.5 C 249.833,546.5 249.167,545.5 248.5,544.5C 236.5,544.5 224.5,544.5 212.5,544.5C 211.833,544.167 211.167,543.833 210.5,543.5C 209.108,541.443 208.441,539.109 208.5,536.5C 210.377,520.982 212.377,505.482 214.5,490C 214.27,487.3 213.27,484.967 211.5,483C 201.167,482.667 190.833,482.333 180.5,482C 126.57,476.236 96.9029,446.403 91.5,392.5C 92.12,386.074 91.4533,380.074 89.5,374.5C 83.4735,372.069 77.9735,368.735 73,364.5C 72.6667,364.833 72.3333,365.167 72,365.5C 69.913,364.206 67.7463,363.039 65.5,362C 49.4131,351.591 39.2465,337.091 35,318.5C 32.4483,299.299 34.615,280.633 41.5,262.5C 38.0617,253.952 34.8951,245.285 32,236.5C 31.0861,231.879 30.5861,227.212 30.5,222.5C 29.9109,214.004 32.0776,206.337 37,199.5C 47.9963,184.839 62.3297,175.172 80,170.5C 82.7952,119.372 109.795,92.7049 161,90.5C 166.143,84.6872 171.31,78.8539 176.5,73C 198.039,55.3029 221.872,51.4696 248,61.5C 253.145,55.0218 258.978,49.1885 265.5,44C 289.076,34.7292 309.743,39.0626 327.5,57C 330.881,59.2448 334.548,59.9115 338.5,59C 347.998,52.2507 357.998,47.2507 368.5,44C 375.539,42.5426 382.539,42.5426 389.5,44C 405.822,49.4176 419.322,58.9176 430,72.5C 431.831,77.5012 435.331,80.5012 440.5,81.5C 473.664,69.9542 499.664,78.9542 518.5,108.5C 533.673,110.612 547.673,115.779 560.5,124C 577.854,137.876 588.688,155.709 593,177.5C 596.297,179.795 599.297,182.462 602,185.5C 607.028,191.855 612.028,198.189 617,204.5C 620.216,210.264 622.883,216.264 625,222.5C 640.925,274.383 627.425,316.55 584.5,349C 579.844,350.844 575.01,351.677 570,351.5C 560.295,350.447 550.628,349.114 541,347.5C 529.825,348.048 518.658,349.548 507.5,352C 497.58,359.426 486.58,364.759 474.5,368C 468.368,404.797 446.701,425.13 409.5,429C 391.457,430.358 373.457,431.858 355.5,433.5C 331.091,433.602 309.925,442.268 292,459.5C 273.204,483.097 260.87,509.764 255,539.5C 252.696,541.78 251.196,544.446 250.5,547.5 Z"/></g>
<g><path style="opacity:0.345" fill="#757575" d="M 175.5,49.5 C 174.514,51.4077 172.848,52.4077 170.5,52.5C 171.659,50.7497 173.326,49.7497 175.5,49.5 Z"/></g>
<g><path style="opacity:0.345" fill="#838383" d="M 170.5,52.5 C 169.352,55.0869 167.685,56.0869 165.5,55.5C 166.922,54.075 168.589,53.075 170.5,52.5 Z"/></g>
<g><path style="opacity:0.237" fill="#9b9b9b" d="M 566.5,104.5 C 555.221,98.4617 543.221,94.295 530.5,92C 509.353,62.4476 481.02,51.9476 445.5,60.5C 424.04,33.2331 396.04,21.5665 361.5,25.5C 376.299,21.0731 390.966,21.9064 405.5,28C 410.651,30.0764 415.651,32.4097 420.5,35C 429.666,42.3356 438.333,50.169 446.5,58.5C 481.393,50.2844 509.393,60.6177 530.5,89.5C 538.718,91.2949 546.718,93.7949 554.5,97C 559.07,98.7744 563.07,101.274 566.5,104.5 Z"/></g>
<g><path style="opacity:0.102" fill="#a6a6a6" d="M 164.5,56.5 C 159.733,62.4415 154.733,68.2749 149.5,74C 142.259,74.2746 135.092,75.1079 128,76.5C 127.235,76.4301 126.735,76.0967 126.5,75.5C 133.97,73.2164 141.636,71.7164 149.5,71C 153.729,65.2696 158.729,60.4362 164.5,56.5 Z"/></g>
<g><path style="opacity:1" fill="#000000" d="M 308.5,96.5 C 311.216,96.6785 313.883,97.1785 316.5,98C 317.126,98.7504 317.626,99.5838 318,100.5C 318.667,200.5 318.667,300.5 318,400.5C 313.585,404.051 308.918,404.384 304,401.5C 303.333,300.833 303.333,200.167 304,99.5C 305.409,98.2189 306.909,97.2189 308.5,96.5 Z"/></g>
<g><path style="opacity:0.084" fill="#909090" d="M 125.5,76.5 C 115.64,81.0994 105.974,86.2661 96.5,92C 75.31,108.546 64.31,130.379 63.5,157.5C 55.3926,159.734 47.7259,162.734 40.5,166.5C 46.6183,161.688 53.4517,158.021 61,155.5C 63.0386,130.591 73.2053,109.758 91.5,93C 101.649,85.1138 112.982,79.6138 125.5,76.5 Z"/></g>
<g><path style="opacity:0.071" fill="#909090" d="M 566.5,104.5 C 588.225,117.245 602.225,135.912 608.5,160.5C 605.008,152.511 601.175,144.511 597,136.5C 589.017,123.686 578.851,113.019 566.5,104.5 Z"/></g>
<g><path style="opacity:1" fill="#000000" d="M 263.5,152.5 C 266.216,152.678 268.883,153.178 271.5,154C 272.191,155.067 272.691,156.234 273,157.5C 273.667,219.167 273.667,280.833 273,342.5C 272.15,346.102 269.817,347.769 266,347.5C 261.652,347.666 258.985,345.666 258,341.5C 257.333,280.167 257.333,218.833 258,157.5C 258.309,156.234 258.809,155.067 259.5,154C 261.058,153.79 262.391,153.29 263.5,152.5 Z"/></g>
<g><path style="opacity:1" fill="#000000" d="M 353.5,152.5 C 358.48,151.894 361.647,153.894 363,158.5C 363.667,219.5 363.667,280.5 363,341.5C 362.282,345.649 359.782,347.649 355.5,347.5C 351.568,347.721 349.068,346.054 348,342.5C 347.333,280.5 347.333,218.5 348,156.5C 349.456,154.535 351.29,153.201 353.5,152.5 Z"/></g>
<g><path style="opacity:0.224" fill="#a2a2a2" d="M 40.5,166.5 C 40.631,167.239 40.4643,167.906 40,168.5C 33.9789,173.523 28.3122,178.856 23,184.5C 21,187.833 19,191.167 17,194.5C 9.1171,217.941 10.6171,240.774 21.5,263C 18.5881,271.973 16.5881,281.139 15.5,290.5C 14.8333,290.5 14.1667,290.5 13.5,290.5C 14.63,281.479 16.63,272.646 19.5,264C 10.7927,246.049 7.95942,227.216 11,207.5C 15.2901,189.729 25.1235,176.063 40.5,166.5 Z"/></g>
<g><path style="opacity:0.098" fill="#a6a6a6" d="M 609.5,165.5 C 614.446,170.272 619.612,174.939 625,179.5C 629.154,185.145 632.654,191.145 635.5,197.5C 631.354,191.901 627.188,186.234 623,180.5C 619.278,176.275 615.112,172.608 610.5,169.5C 609.571,168.311 609.238,166.978 609.5,165.5 Z"/></g>
<g><path style="opacity:1" fill="#000000" d="M 216.5,186.5 C 219.187,186.336 221.854,186.503 224.5,187C 226.333,187.5 227.5,188.667 228,190.5C 228.667,230.5 228.667,270.5 228,310.5C 224.403,314.107 220.236,314.94 215.5,313C 214.874,312.25 214.374,311.416 214,310.5C 213.333,270.167 213.333,229.833 214,189.5C 214.698,188.309 215.531,187.309 216.5,186.5 Z"/></g>
<g><path style="opacity:1" fill="#000000" d="M 395.5,186.5 C 398.85,186.335 402.183,186.502 405.5,187C 406.893,188.171 407.727,189.671 408,191.5C 408.667,230.5 408.667,269.5 408,308.5C 406.95,311.877 404.617,313.877 401,314.5C 396.139,314.638 393.473,312.304 393,307.5C 392.333,268.833 392.333,230.167 393,191.5C 393.366,189.548 394.199,187.882 395.5,186.5 Z"/></g>
<g><path style="opacity:0.651" fill="#656565" d="M 635.5,197.5 C 637.674,200.515 639.341,203.849 640.5,207.5C 637.29,205.082 635.624,201.748 635.5,197.5 Z"/></g>
<g><path style="opacity:1" fill="#000000" d="M 174.5,208.5 C 176.854,208.838 179.187,209.338 181.5,210C 182.191,211.067 182.691,212.234 183,213.5C 183.667,238.167 183.667,262.833 183,287.5C 181.741,290.217 179.574,291.55 176.5,291.5C 171.41,291.866 168.576,289.532 168,284.5C 167.333,261.833 167.333,239.167 168,216.5C 167.88,211.8 170.047,209.133 174.5,208.5 Z"/></g>
<g><path style="opacity:1" fill="#000000" d="M 443.5,208.5 C 449.628,207.801 452.794,210.468 453,216.5C 453.667,239.167 453.667,261.833 453,284.5C 452.829,289.285 450.329,291.618 445.5,291.5C 441.568,291.721 439.068,290.054 438,286.5C 437.521,261.461 437.354,236.627 437.5,212C 439.432,210.541 441.432,209.375 443.5,208.5 Z"/></g>
<g><path style="opacity:0.027" fill="#a7a7a7" d="M 640.5,207.5 C 648.642,224.115 651.975,241.782 650.5,260.5C 651.593,277.604 648.927,293.937 642.5,309.5C 641.957,309.44 641.624,309.107 641.5,308.5C 652.443,274.708 652.11,241.041 640.5,207.5 Z"/></g>
<g><path style="opacity:0.562" fill="#676767" d="M 13.5,290.5 C 14.1667,290.5 14.8333,290.5 15.5,290.5C 15.5,297.5 15.5,304.5 15.5,311.5C 14.8333,306.5 14.1667,301.5 13.5,296.5C 13.5,294.5 13.5,292.5 13.5,290.5 Z"/></g>
<g><path style="opacity:0.502" fill="#707070" d="M 642.5,311.5 C 639.417,317.334 636.084,323.001 632.5,328.5C 632.343,327.127 632.51,325.793 633,324.5C 635.289,319.648 637.956,314.982 641,310.5C 641.383,311.056 641.883,311.389 642.5,311.5 Z"/></g>
<g><path style="opacity:0.337" fill="#969696" d="M 13.5,296.5 C 14.1667,301.5 14.8333,306.5 15.5,311.5C 16.1685,317.513 17.0018,323.513 18,329.5C 25.0315,349.693 37.1982,366.026 54.5,378.5C 31.371,365.17 17.871,345.17 14,318.5C 12.6078,311.023 12.4411,303.689 13.5,296.5 Z"/></g>
<g><path style="opacity:0.408" fill="#808080" d="M 632.5,328.5 C 622.426,347.404 607.426,360.904 587.5,369C 584.207,369.826 580.874,370.326 577.5,370.5C 572.305,370.821 567.305,370.487 562.5,369.5C 576.022,370.403 588.688,367.57 600.5,361C 613.098,353.069 622.932,342.569 630,329.5C 630.671,328.748 631.504,328.414 632.5,328.5 Z"/></g>
<g><path style="opacity:0.165" fill="#adadad" d="M 527.5,367.5 C 539.243,367.142 550.91,367.808 562.5,369.5C 567.305,370.487 572.305,370.821 577.5,370.5C 574.686,371.165 571.686,371.498 568.5,371.5C 558.85,370.407 549.183,369.407 539.5,368.5C 534.162,368.834 528.828,369.168 523.5,369.5C 524.833,368.833 526.167,368.167 527.5,367.5 Z"/></g>
<g><path style="opacity:0.573" fill="#787878" d="M 527.5,367.5 C 526.167,368.167 524.833,368.833 523.5,369.5C 516.081,370.855 508.748,372.522 501.5,374.5C 501.369,373.624 501.702,372.957 502.5,372.5C 510.556,369.422 518.89,367.755 527.5,367.5 Z"/></g>
<g><path style="opacity:1" fill="#a29396" d="M 89.5,374.5 C 91.4533,380.074 92.12,386.074 91.5,392.5C 90.7951,386.601 90.1284,380.601 89.5,374.5 Z"/></g>
<g><path style="opacity:0.365" fill="#868686" d="M 501.5,374.5 C 498.555,376.438 495.388,378.105 492,379.5C 489.265,397.407 481.765,412.907 469.5,426C 467.595,427.421 465.595,428.588 463.5,429.5C 478.452,415.901 487.286,398.901 490,378.5C 493.401,375.897 497.234,374.564 501.5,374.5 Z"/></g>
<g><path style="opacity:0.027" fill="#9d9d9d" d="M 56.5,379.5 C 61.6246,382.063 66.9579,384.063 72.5,385.5C 73.4931,401.796 76.1598,417.796 80.5,433.5C 74.5125,418.872 71.0125,403.539 70,387.5C 65.7879,385.644 61.6212,383.644 57.5,381.5C 56.7025,381.043 56.3691,380.376 56.5,379.5 Z"/></g>
<g><path style="opacity:0.325" fill="#b3b3b3" d="M 80.5,433.5 C 82.2132,434.635 82.8799,436.302 82.5,438.5C 81.4625,437.07 80.7959,435.403 80.5,433.5 Z"/></g>
<g><path style="opacity:0.071" fill="#a3a3a3" d="M 463.5,429.5 C 461.664,432.168 459.331,434.334 456.5,436C 433.763,446.848 409.763,452.015 384.5,451.5C 385.5,450.833 386.5,450.167 387.5,449.5C 394.206,449.552 400.872,449.052 407.5,448C 427.882,446.483 446.549,440.317 463.5,429.5 Z"/></g>
<g><path style="opacity:0.302" fill="#939393" d="M 387.5,449.5 C 386.5,450.167 385.5,450.833 384.5,451.5C 366.264,451.757 348.264,453.923 330.5,458C 326.979,459.592 323.646,461.425 320.5,463.5C 320.33,462.178 320.663,461.011 321.5,460C 326.534,457.211 331.868,455.211 337.5,454C 354.037,451.142 370.704,449.642 387.5,449.5 Z"/></g>
<g><path style="opacity:0.069" fill="#a3a3a3" d="M 319.5,463.5 C 309.38,471.949 300.713,481.615 293.5,492.5C 293.5,491.833 293.5,491.167 293.5,490.5C 299.484,479.675 307.484,470.509 317.5,463C 318.437,462.308 319.103,462.475 319.5,463.5 Z"/></g>
<g><path style="opacity:0.039" fill="#959595" d="M 86.5,446.5 C 87.3764,446.369 88.0431,446.702 88.5,447.5C 96.7437,462.075 107.744,474.075 121.5,483.5C 105.386,475.386 93.7194,463.052 86.5,446.5 Z"/></g>
<g><path style="opacity:0.165" fill="#919191" d="M 121.5,483.5 C 124.034,483.259 125.7,484.259 126.5,486.5C 124.326,486.25 122.659,485.25 121.5,483.5 Z"/></g>
<g><path style="opacity:0.502" fill="#7a7a7a" d="M 126.5,486.5 C 129.647,486.737 132.647,487.57 135.5,489C 136.381,489.708 137.047,490.542 137.5,491.5C 133.418,490.624 129.751,488.957 126.5,486.5 Z"/></g>
<g><path style="opacity:0.541" fill="#6d6d6d" d="M 293.5,490.5 C 293.5,491.167 293.5,491.833 293.5,492.5C 288.967,500.901 284.967,509.568 281.5,518.5C 280.833,518.5 280.167,518.5 279.5,518.5C 282.857,508.373 287.524,499.04 293.5,490.5 Z"/></g>
<g><path style="opacity:0.027" fill="#a2a2a2" d="M 137.5,491.5 C 155.618,497.709 174.285,501.042 193.5,501.5C 191.722,520.207 189.888,538.874 188,557.5C 192.164,564.698 197.997,566.365 205.5,562.5C 209.807,556.944 211.473,550.611 210.5,543.5C 211.167,543.833 211.833,544.167 212.5,544.5C 213.192,551.913 211.192,558.413 206.5,564C 200.329,567.611 194.495,567.111 189,562.5C 187.119,559.576 185.952,556.409 185.5,553C 187.757,536.524 189.757,520.024 191.5,503.5C 176.145,503.163 161.145,500.663 146.5,496C 143.177,494.96 140.177,493.46 137.5,491.5 Z"/></g>
<g><path style="opacity:0.027" fill="#a1a1a1" d="M 279.5,518.5 C 280.167,518.5 280.833,518.5 281.5,518.5C 276.432,534.586 273.432,550.92 272.5,567.5C 272.167,567.5 271.833,567.5 271.5,567.5C 271.07,550.65 273.737,534.317 279.5,518.5 Z"/></g>
<g><path style="opacity:0.243" fill="#acacac" d="M 248.5,544.5 C 249.167,545.5 249.833,546.5 250.5,547.5C 249.557,554.144 249.391,560.811 250,567.5C 251.75,569.734 253.25,572.068 254.5,574.5C 251.156,572.825 248.99,570.158 248,566.5C 247.418,559.148 247.585,551.815 248.5,544.5 Z"/></g>
<g><path style="opacity:0.427" fill="#727272" d="M 271.5,567.5 C 271.833,567.5 272.167,567.5 272.5,567.5C 270.907,573.251 267.073,576.251 261,576.5C 258.779,576.607 256.946,575.94 255.5,574.5C 262.651,575.918 267.984,573.585 271.5,567.5 Z"/></g>
</svg>
