<?xml version="1.0" standalone="no"?>
<!DOCTYPE svg PUBLIC "-//W3C//DTD SVG 20010904//EN"
 "http://www.w3.org/TR/2001/REC-SVG-20010904/DTD/svg10.dtd">
<svg version="1.0" xmlns="http://www.w3.org/2000/svg"
 width="1062.000000pt" height="1062.000000pt" viewBox="0 0 1062.000000 1062.000000"
 preserveAspectRatio="xMidYMid meet">

<g transform="translate(0.000000,1062.000000) scale(0.100000,-0.100000)"
fill="#000000" stroke="none">
<path d="M4975 10513 c-249 -16 -584 -64 -825 -118 -1055 -239 -2038 -819
-2748 -1623 -580 -657 -968 -1392 -1176 -2232 -85 -346 -132 -673 -145 -1032
-42 -1084 222 -2081 797 -3008 396 -640 993 -1237 1647 -1647 1021 -641 2279
-917 3450 -758 955 129 1828 494 2560 1069 1108 870 1811 2123 1976 3526 38
324 40 857 5 1165 -140 1208 -657 2287 -1501 3130 -900 901 -2059 1431 -3335
1525 -122 9 -582 11 -705 3z m660 -298 c153 -7 417 -38 593 -71 1377 -253
2576 -1083 3303 -2286 102 -169 278 -522 348 -698 492 -1240 467 -2590 -70
-3809 -366 -829 -981 -1560 -1741 -2067 -717 -479 -1490 -747 -2358 -819 -931
-77 -1947 149 -2760 613 -427 244 -753 494 -1091 838 -263 267 -465 522 -652
821 -394 632 -626 1291 -719 2043 -19 151 -22 227 -22 555 -1 406 6 502 59
817 227 1342 997 2521 2136 3270 197 130 330 205 554 314 497 241 982 383
1550 455 267 33 512 40 870 24z"/>
<path d="M4777 8973 c-109 -29 -177 -141 -252 -414 l-45 -167 6 -213 c8 -322
22 -482 48 -557 8 -23 20 -79 26 -124 6 -45 18 -98 27 -118 8 -19 17 -48 19
-65 10 -105 138 -464 238 -670 54 -110 177 -296 259 -390 50 -58 70 -105 58
-138 -5 -13 -7 -36 -4 -53 7 -38 79 -134 101 -134 10 0 41 24 70 53 51 52 52
53 52 114 0 34 5 65 11 68 7 5 5 13 -5 24 -9 10 -13 21 -9 24 4 4 8 29 9 55 2
26 6 70 9 99 5 40 3 53 -9 60 -13 7 -14 21 -6 96 6 49 8 92 5 98 -4 5 -2 16 3
26 7 12 5 24 -4 39 -12 17 -12 27 -3 47 7 15 8 37 4 54 -10 37 -6 155 5 167 5
5 1 25 -11 48 -17 34 -18 39 -4 44 10 4 14 12 9 23 -9 21 -23 168 -29 306 -5
133 -10 174 -20 198 -4 10 -3 29 3 41 7 17 7 27 -1 35 -16 16 -28 134 -17 172
8 26 6 39 -10 64 -11 17 -17 40 -14 52 3 11 -2 44 -10 73 -9 30 -16 73 -16 97
0 25 -10 66 -21 94 -12 28 -19 60 -16 75 3 17 -3 40 -15 60 -11 19 -18 41 -14
49 3 8 -1 27 -9 42 -8 15 -15 38 -15 51 0 13 -11 43 -25 67 -14 23 -32 76 -41
116 -17 82 -105 244 -136 252 -11 3 -18 15 -18 31 0 30 -7 32 -36 11 -19 -13
-22 -12 -32 10 -13 29 -30 30 -115 8z m113 -253 c17 -24 35 -62 41 -85 6 -22
22 -65 35 -95 13 -31 30 -83 38 -115 7 -33 26 -104 40 -159 14 -54 26 -122 26
-151 0 -28 7 -74 15 -101 9 -27 20 -109 25 -182 5 -73 12 -137 15 -142 3 -5 6
-26 7 -47 0 -21 5 -44 11 -50 6 -9 4 -21 -6 -37 -13 -19 -14 -27 -3 -42 9 -13
12 -55 12 -126 -1 -60 1 -108 4 -108 3 0 6 -12 7 -27 1 -16 5 -54 9 -85 4 -41
2 -68 -9 -95 -14 -38 -10 -74 11 -87 6 -4 6 -21 0 -48 -5 -24 -7 -69 -4 -100
3 -31 3 -150 -1 -263 l-6 -205 -27 40 c-15 22 -30 37 -33 33 -4 -3 -7 4 -7 16
0 14 -7 25 -19 28 -13 3 -21 17 -25 42 -3 21 -15 46 -26 56 -11 10 -27 39 -34
64 -8 25 -37 90 -65 145 -28 54 -51 111 -51 125 0 15 -7 36 -15 47 -8 10 -15
28 -15 39 0 11 -11 41 -25 67 -14 26 -25 57 -25 69 0 40 -22 143 -41 193 -11
27 -19 57 -19 66 0 10 -7 23 -14 30 -9 7 -15 28 -14 53 0 23 -5 62 -12 87 -6
25 -11 58 -11 74 0 16 -4 34 -8 40 -9 10 -18 104 -24 238 -1 31 -5 59 -9 63
-3 4 -2 20 4 36 7 19 6 43 -2 76 -6 26 -11 53 -11 58 0 38 25 186 36 211 11
27 10 34 -7 57 l-19 26 31 16 c30 16 31 17 15 35 -15 17 -15 19 0 27 9 6 27
48 42 103 19 71 34 105 61 137 l37 43 17 -22 c10 -13 32 -43 48 -68z"/>
<path d="M7675 8376 c-141 -46 -363 -179 -450 -270 -33 -34 -69 -69 -80 -77
-11 -8 -28 -25 -36 -39 -9 -14 -62 -76 -118 -138 -55 -62 -101 -117 -101 -122
0 -5 -18 -30 -40 -55 -23 -26 -57 -77 -76 -114 -19 -36 -55 -94 -79 -129 -25
-35 -48 -75 -51 -90 -4 -15 -12 -31 -18 -37 -28 -24 -100 -163 -167 -320 -105
-248 -155 -396 -174 -515 -9 -58 -23 -147 -31 -198 -8 -51 -12 -102 -9 -114 9
-26 -22 -96 -46 -103 -36 -12 -62 -63 -67 -134 -6 -88 2 -95 98 -85 66 6 73 9
103 44 18 20 42 40 55 44 13 5 22 15 22 28 0 11 8 22 20 25 11 3 20 12 20 19
0 8 5 14 10 14 18 0 110 92 110 109 0 15 131 145 166 164 8 4 14 17 14 28 0
13 10 24 30 31 18 6 32 19 36 32 5 23 114 126 132 126 5 0 13 16 16 35 6 28
11 35 30 35 17 0 26 7 30 23 3 13 28 49 56 81 27 31 50 64 50 71 0 8 10 20 23
27 31 17 100 95 121 136 9 17 21 32 27 32 5 0 15 14 21 30 6 19 19 32 34 36
17 4 24 13 24 29 0 15 24 48 69 95 41 42 72 84 76 101 4 16 13 29 21 29 8 0
24 20 34 43 11 24 42 72 69 105 27 34 52 77 55 95 4 19 19 46 36 61 17 14 30
35 30 47 0 11 12 31 26 44 15 14 24 25 20 25 -3 0 7 25 24 56 16 31 30 66 30
78 0 12 20 56 45 98 34 56 50 99 65 167 11 50 18 102 14 115 -3 13 -1 27 5 30
19 12 12 34 -11 38 -22 3 -23 7 -15 51 1 5 -27 26 -62 48 -78 47 -128 50 -236
15z m128 -188 c-12 -94 -25 -146 -46 -178 -13 -19 -30 -53 -36 -75 -23 -71
-192 -365 -231 -400 -12 -11 -33 -40 -45 -65 -13 -25 -45 -71 -72 -104 -26
-32 -67 -84 -91 -115 -23 -31 -51 -67 -62 -79 -11 -13 -20 -30 -20 -38 0 -8
-13 -20 -30 -25 -19 -7 -30 -18 -30 -29 0 -10 -27 -46 -60 -81 -33 -34 -60
-66 -60 -71 0 -4 -7 -8 -15 -8 -8 0 -15 -7 -15 -15 0 -8 -4 -15 -10 -15 -5 0
-18 -17 -29 -38 -19 -38 -92 -112 -110 -112 -18 0 -41 -31 -41 -54 0 -16 -13
-32 -40 -51 -22 -15 -52 -44 -67 -64 -15 -20 -94 -102 -175 -182 l-149 -147 3
52 c1 28 6 57 11 64 6 7 5 18 -3 27 -11 13 -9 19 8 38 12 12 24 42 28 67 4 25
14 59 22 75 9 17 26 64 38 105 30 100 46 140 67 170 9 13 17 34 17 46 0 11 9
29 20 39 11 10 20 27 20 37 0 32 25 82 74 146 26 33 53 79 61 102 8 22 21 51
30 63 8 12 15 32 15 44 0 15 9 27 25 35 13 6 29 23 35 37 18 43 44 85 63 99 9
7 17 20 17 28 0 9 25 43 55 77 30 33 55 66 55 73 0 7 18 28 40 45 22 18 40 37
40 42 0 6 19 26 41 45 23 20 48 51 55 69 8 18 18 33 23 33 4 0 34 23 67 51 32
29 73 58 91 65 23 10 32 21 35 41 3 25 7 28 36 25 26 -2 32 2 32 18 0 14 7 20
23 20 12 0 58 22 102 49 70 43 87 49 136 50 l56 1 -4 -32z"/>
<path d="M2167 7463 c-4 -3 -7 -15 -7 -26 0 -14 -4 -17 -17 -12 -37 15 -47 8
-85 -54 -46 -74 -50 -116 -23 -222 18 -69 42 -118 140 -295 75 -135 110 -173
367 -409 60 -55 122 -106 136 -114 15 -8 46 -32 70 -53 24 -22 63 -48 86 -59
24 -10 70 -41 104 -67 34 -27 74 -54 89 -60 15 -5 35 -13 43 -16 8 -3 35 -22
60 -41 59 -46 123 -79 327 -169 327 -144 394 -164 734 -211 103 -14 139 -27
139 -50 0 -28 63 -63 127 -71 85 -9 93 -1 93 91 l0 72 -45 42 c-25 23 -45 49
-45 57 0 7 -9 14 -20 14 -11 0 -23 8 -27 18 -3 9 -13 25 -22 35 -9 9 -34 39
-56 66 -23 29 -49 50 -61 50 -12 1 -42 27 -78 71 -31 39 -61 70 -65 70 -5 0
-11 9 -14 20 -3 12 -14 20 -26 20 -13 0 -26 11 -36 30 -8 16 -26 35 -39 42
-26 15 -116 114 -116 128 0 5 -18 14 -39 20 -32 8 -38 14 -34 30 3 11 0 20 -5
20 -6 0 -39 25 -73 55 -34 31 -72 58 -85 61 -13 3 -26 14 -29 24 -5 16 -47 57
-151 148 -20 17 -45 32 -56 32 -13 0 -20 9 -24 30 -5 22 -12 30 -28 30 -25 0
-132 91 -141 119 -3 12 -19 21 -41 25 -24 5 -38 14 -44 31 -5 13 -23 28 -42
34 -19 6 -61 34 -94 61 -32 28 -76 56 -98 62 -21 7 -48 24 -59 40 -11 15 -29
28 -38 28 -10 0 -31 11 -47 25 -17 14 -35 25 -42 25 -7 0 -25 11 -42 25 -16
14 -38 25 -49 25 -29 0 -88 27 -144 66 -55 37 -222 86 -268 77 -13 -3 -28 0
-31 6 -8 12 -20 14 -29 4z m148 -214 c27 -5 69 -21 92 -35 24 -14 61 -31 83
-39 63 -22 309 -174 367 -227 29 -26 70 -56 92 -68 22 -11 79 -54 126 -95 48
-41 106 -89 131 -105 24 -17 44 -35 44 -40 0 -6 9 -10 19 -10 12 0 23 -11 30
-30 6 -17 17 -30 27 -30 9 0 26 -9 38 -20 83 -78 116 -113 116 -121 0 -5 7 -9
15 -9 8 0 15 -4 15 -10 0 -5 17 -18 38 -29 42 -22 102 -83 102 -106 0 -18 50
-57 66 -51 7 3 20 -7 30 -22 9 -15 60 -70 113 -123 53 -53 140 -141 195 -197
l98 -101 -51 4 c-28 2 -58 9 -66 15 -12 10 -18 10 -30 0 -11 -9 -20 -8 -44 9
-16 12 -50 25 -75 30 -25 5 -51 13 -58 19 -7 5 -49 21 -93 35 -130 42 -169 57
-191 78 -11 10 -27 19 -35 19 -8 0 -30 11 -49 25 -19 14 -46 25 -61 25 -16 0
-45 14 -68 33 -87 69 -102 78 -155 102 -30 13 -57 29 -61 34 -3 6 -15 11 -25
11 -11 0 -30 12 -43 26 -25 26 -49 42 -103 68 -17 9 -34 22 -37 31 -4 8 -12
15 -19 15 -8 0 -40 25 -73 55 -33 30 -65 55 -72 55 -14 0 -73 57 -73 71 0 5
-9 9 -19 9 -11 0 -22 9 -26 19 -7 25 -80 91 -99 91 -8 0 -17 8 -20 18 -3 9
-27 42 -52 72 -25 30 -52 69 -60 87 -9 22 -23 33 -44 38 -29 6 -30 9 -24 41 6
30 4 34 -16 34 -16 0 -21 4 -16 17 4 10 -13 50 -44 104 -43 77 -50 96 -50 144
l0 55 33 -6 c17 -3 54 -10 82 -15z"/>
<path d="M3578 5038 c17 -29 296 -521 621 -1092 l591 -1039 0 -704 0 -703 353
2 352 3 5 715 5 715 601 1055 c331 580 606 1065 613 1078 l12 22 -372 -2 -372
-3 -397 -700 c-397 -697 -398 -700 -432 -702 l-33 -3 -407 703 -406 702 -382
3 -382 2 30 -52z"/>
</g>
</svg>
